<?xml version="1.0" standalone="no"?>
<!DOCTYPE svg PUBLIC "-//W3C//DTD SVG 20010904//EN"
 "http://www.w3.org/TR/2001/REC-SVG-20010904/DTD/svg10.dtd">
<svg version="1.0" xmlns="http://www.w3.org/2000/svg"
 width="477.000000pt" height="483.000000pt" viewBox="0 0 477.000000 483.000000"
 preserveAspectRatio="xMidYMid meet">

<g transform="translate(0.000000,483.000000) scale(0.100000,-0.100000)"
fill="#000000" stroke="none">
<path d="M1083 4820 c-23 -4 -66 -5 -95 -3 -52 3 -102 -12 -92 -29 6 -10 -10
-10 -57 1 -41 9 -71 -2 -63 -24 4 -8 1 -15 -5 -15 -6 0 -11 -8 -11 -17 0 -15
4 -14 19 6 10 13 23 22 30 20 7 -3 -1 -18 -20 -38 -22 -25 -33 -31 -39 -22 -9
16 -18 -19 -16 -64 1 -23 6 -30 21 -30 15 0 19 -6 17 -22 -3 -20 1 -21 38 -18
38 3 42 2 37 -16 -4 -14 -2 -19 8 -15 8 3 24 -11 39 -34 26 -39 34 -80 17 -80
-5 0 -11 -18 -15 -40 -5 -29 -10 -38 -21 -34 -17 7 -21 -21 -5 -31 16 -10 12
-28 -5 -21 -8 3 -19 -2 -24 -12 -6 -9 -11 -13 -11 -8 0 5 -9 -1 -20 -14 -12
-14 -18 -30 -14 -39 14 -34 16 -51 6 -51 -15 0 -3 -36 20 -56 21 -19 120 -26
168 -12 33 10 74 -23 75 -60 0 -15 6 -26 12 -25 6 1 9 -6 6 -17 -3 -11 2 -35
11 -54 9 -19 16 -40 16 -48 0 -7 6 -22 13 -33 11 -18 29 -60 72 -175 27 -73
37 -118 30 -139 -4 -12 -6 -52 -6 -89 0 -63 8 -88 52 -174 5 -10 9 -27 9 -37
0 -11 5 -23 11 -27 6 -3 22 -30 35 -58 39 -84 74 -139 116 -183 42 -43 71 -55
104 -42 11 4 33 1 49 -7 l30 -14 -32 5 c-25 3 -38 -1 -53 -17 -11 -12 -23 -18
-27 -13 -5 4 -2 10 5 12 6 3 10 9 6 14 -6 11 -44 12 -44 2 1 -14 25 -39 44
-46 10 -4 16 -10 13 -14 -9 -8 -67 17 -67 30 0 6 -3 7 -7 3 -4 -4 -8 -15 -8
-24 0 -9 -7 -17 -15 -17 -21 0 -18 -91 5 -136 17 -31 19 -32 27 -14 7 17 8 17
4 -4 -3 -14 3 -38 12 -55 37 -67 68 -88 58 -38 -8 40 25 132 54 151 16 11 21
12 16 3 -5 -9 1 -24 19 -42 27 -28 27 -30 11 -52 -59 -81 -66 -97 -56 -122 6
-18 5 -35 -5 -59 -21 -52 -28 -128 -16 -175 13 -48 31 -56 31 -13 0 16 6 34
13 40 8 6 19 28 25 50 24 77 65 77 75 0 3 -22 18 -58 33 -80 26 -38 26 -40 9
-53 -10 -7 -15 -18 -11 -24 4 -7 2 -12 -3 -12 -6 0 -23 -19 -38 -43 -16 -23
-34 -48 -40 -55 -7 -7 -13 -20 -13 -28 0 -8 -6 -17 -13 -20 -7 -2 -13 -13 -14
-24 -1 -11 -11 -32 -22 -46 -12 -15 -18 -31 -15 -36 3 -5 -4 -20 -17 -34 -12
-13 -20 -27 -16 -30 4 -4 -5 -20 -19 -37 -14 -16 -23 -36 -20 -43 3 -7 1 -16
-4 -19 -6 -4 -10 -24 -10 -45 0 -22 -5 -51 -12 -65 -9 -19 -9 -28 0 -37 7 -7
12 -19 12 -27 0 -11 -6 -9 -23 7 -13 12 -27 19 -30 15 -4 -3 -7 -1 -7 5 0 7 6
12 13 12 8 1 7 5 -4 13 -21 16 -39 51 -39 77 0 13 -4 19 -12 14 -7 -5 -8 -3
-4 5 5 7 0 21 -10 32 -9 10 -14 22 -11 26 4 3 -3 15 -16 27 -12 12 -23 32 -23
46 -2 32 -54 119 -75 125 -9 3 -22 18 -30 33 -39 76 -60 102 -84 102 -19 0
-26 6 -30 28 -10 49 -30 75 -65 87 -28 9 -36 18 -38 41 -5 43 -20 56 -55 48
-20 -4 -27 -3 -23 5 4 6 2 11 -3 11 -6 0 -11 10 -11 23 0 37 -14 49 -45 41
-20 -5 -26 -4 -21 5 4 6 2 11 -3 11 -6 0 -11 6 -11 14 0 27 -41 66 -69 66 -19
0 -32 8 -41 25 -10 19 -21 25 -46 25 -22 0 -37 6 -43 19 -15 26 -35 32 -70 18
-27 -10 -33 -8 -55 12 -19 18 -31 22 -51 17 -14 -4 -31 -3 -38 1 -16 11 -117
11 -117 1 0 -5 -9 -4 -19 2 -24 12 -44 13 -37 1 7 -12 -34 -2 -52 12 -10 8
-16 7 -20 0 -4 -6 -23 -11 -43 -10 -56 1 -129 -41 -129 -76 0 -2 23 0 52 3 55
7 132 -5 283 -45 122 -32 166 -52 262 -121 152 -110 288 -261 369 -410 21 -38
40 -71 43 -74 17 -15 135 -255 166 -335 12 -34 32 -80 44 -102 11 -23 25 -63
31 -90 10 -45 29 -107 82 -276 15 -46 26 -66 35 -63 16 7 17 -6 1 -22 -9 -9
-9 -15 0 -24 7 -7 12 -20 12 -31 0 -11 4 -15 12 -11 7 4 8 3 4 -4 -7 -12 21
-73 89 -188 43 -73 45 -77 39 -137 -3 -34 -10 -70 -15 -79 -6 -11 -6 -18 -1
-18 5 0 7 -12 4 -27 -6 -33 -68 -113 -87 -113 -8 0 -16 -8 -20 -19 -4 -13 -12
-17 -30 -13 -14 2 -31 -2 -40 -12 -9 -9 -23 -16 -31 -16 -8 0 -14 -9 -14 -21
0 -11 -4 -17 -10 -14 -19 12 -144 -78 -137 -99 6 -14 -12 -48 -21 -42 -4 2 -8
-5 -8 -16 0 -17 5 -19 37 -14 22 4 39 2 41 -4 2 -6 61 -12 147 -15 112 -3 151
0 172 11 32 16 199 20 215 5 5 -5 109 -11 232 -13 135 -2 226 -7 230 -13 7
-10 79 -47 157 -81 40 -17 210 -28 637 -39 76 -2 141 -6 146 -9 5 -3 157 -3
338 -1 282 3 340 7 404 23 41 11 91 17 110 15 28 -4 57 7 145 52 122 63 165
97 165 132 0 24 25 52 71 84 30 21 119 197 159 314 16 50 37 110 46 135 11 32
14 62 9 105 l-6 60 53 45 c50 43 51 45 27 51 -23 7 -23 7 -1 8 12 1 22 4 22 9
0 4 18 20 40 36 42 32 55 54 19 35 -15 -8 -19 -8 -15 0 10 15 1 14 -37 -5 -18
-9 -29 -13 -25 -9 14 15 -26 33 -59 28 -44 -7 -44 15 -1 47 31 23 31 23 9 32
-12 4 -20 12 -16 18 4 6 -1 7 -11 3 -11 -4 -15 -2 -11 4 4 6 -13 18 -40 28
-44 17 -45 18 -26 34 17 13 19 21 11 48 -8 33 -48 66 -48 42 0 -19 -13 -1 -17
22 -2 11 7 33 19 50 18 23 20 33 11 47 -6 9 -20 16 -32 15 -15 -2 -21 3 -23
20 -1 12 -2 31 -3 42 -1 11 4 32 12 47 19 40 16 63 -12 78 -14 7 -25 22 -25
32 0 10 -9 27 -20 38 -11 11 -19 30 -17 42 1 17 -5 24 -30 31 -18 6 -33 16
-33 22 0 18 -29 29 -70 26 -19 -1 -44 5 -55 14 -18 14 -18 14 -1 9 16 -6 17
-5 7 15 -7 12 -9 31 -5 43 5 16 3 20 -8 15 -9 -3 -15 1 -15 9 0 8 6 13 14 10
16 -7 16 -2 0 49 -21 67 -35 85 -67 85 -15 0 -31 -6 -33 -12 -4 -10 -6 -10 -6
0 -1 7 -5 10 -11 7 -5 -3 -10 1 -10 9 0 8 -10 18 -21 21 -15 5 -18 10 -10 15
9 5 2 17 -21 40 -18 19 -27 30 -19 26 10 -7 12 -3 6 13 -5 17 2 33 30 67 20
24 35 51 32 58 -3 8 -25 17 -49 21 -24 3 -55 11 -69 16 -41 16 -80 99 -46 99
20 0 86 59 103 92 20 39 7 55 -45 50 -31 -3 -39 -7 -34 -20 4 -14 3 -14 -5 -3
-6 8 -19 12 -31 8 -12 -3 -19 -1 -15 4 3 5 11 9 17 9 17 1 62 99 50 111 -22
22 -79 21 -121 0 -57 -29 -54 -10 8 58 28 29 50 59 50 67 0 8 8 22 18 32 50
52 91 113 97 145 4 20 4 37 0 37 -4 0 -29 -16 -55 -35 -39 -29 -49 -32 -54
-20 -5 13 -10 14 -28 4 -13 -7 -24 -12 -26 -10 -11 8 -62 -35 -81 -69 -12 -23
-25 -39 -28 -36 -3 3 0 13 7 21 12 14 10 14 -15 5 -22 -8 -30 -8 -37 2 -11 19
-11 19 24 74 61 95 118 228 118 277 0 28 -25 20 -82 -29 -29 -25 -64 -50 -78
-55 -20 -9 -22 -12 -10 -21 12 -8 11 -9 -3 -4 -11 3 -30 -2 -45 -12 -25 -18
-91 -52 -99 -52 -1 0 -3 6 -3 14 0 7 24 34 54 60 88 75 156 186 156 254 0 30
-6 28 -56 -18 -46 -42 -90 -67 -100 -57 -7 7 39 87 90 159 31 44 64 144 51
156 -3 3 -15 -4 -28 -16 -29 -27 -47 -28 -47 -2 0 11 -3 20 -6 20 -14 0 -94
-74 -119 -110 -15 -22 -32 -40 -37 -40 -5 0 -6 5 -3 10 4 6 1 17 -5 25 -10 12
-19 7 -58 -30 -31 -30 -49 -41 -53 -33 -5 8 -14 4 -28 -13 -17 -19 -15 -11 8
36 35 72 46 125 28 125 -7 0 -18 -5 -25 -12 -6 -6 -14 -9 -17 -6 -3 3 15 34
41 68 75 102 138 250 106 250 -8 0 -59 -81 -58 -93 1 -9 -42 -36 -58 -37 -5 0
-2 8 7 18 10 10 27 38 40 63 13 24 36 65 51 91 19 33 26 58 24 83 l-3 35 -43
-39 c-24 -22 -49 -38 -55 -35 -18 6 -78 -34 -84 -57 -3 -10 -12 -19 -19 -19
-8 0 -17 -7 -20 -15 -4 -8 -12 -15 -18 -15 -7 0 -31 -19 -53 -43 -42 -45 -68
-54 -77 -30 -4 10 -1 11 13 3 16 -8 22 -4 36 26 9 19 14 42 12 52 -4 14 -6 13
-12 -5 -4 -13 -14 -23 -22 -23 -9 0 -13 -6 -9 -15 3 -8 1 -15 -3 -15 -5 0 -11
5 -13 11 -2 6 -17 -8 -33 -32 -62 -92 -62 -93 -74 -71 -7 14 -7 31 3 58 54
156 56 169 21 160 -23 -6 -25 -4 -25 30 0 22 15 68 36 111 19 41 33 77 31 80
-7 6 -47 -16 -67 -36 -12 -13 -13 -14 -6 -1 5 8 -7 -3 -27 -25 -19 -22 -39
-37 -43 -32 -4 4 -2 7 4 7 7 0 12 5 12 10 0 23 -21 7 -45 -34 -46 -79 -70 -84
-43 -9 6 18 9 35 6 38 -7 7 -98 -53 -98 -65 0 -5 -17 -29 -37 -54 -21 -25 -46
-55 -56 -68 l-18 -23 5 40 c4 22 9 57 12 78 5 30 4 37 -10 37 -20 0 -20 6 3
103 18 76 13 95 -17 65 -21 -21 -22 -3 -2 38 10 21 22 57 25 79 l7 40 -26 -27
c-14 -14 -33 -29 -43 -32 -10 -4 -29 -22 -43 -40 -14 -19 -34 -40 -44 -46 -16
-10 -18 -10 -12 7 5 16 4 16 -9 -2 -8 -11 -20 -27 -27 -35 -7 -7 -15 -25 -18
-39 -3 -14 -16 -31 -30 -38 -31 -15 -50 -41 -44 -58 4 -10 -1 -12 -15 -8 l-20
5 20 40 c20 38 19 76 0 63 -19 -11 -20 14 -2 56 10 24 22 75 26 113 l7 70 -28
-19 c-16 -10 -46 -28 -68 -39 -21 -12 -41 -27 -43 -33 -3 -7 -11 -13 -18 -13
-8 0 -17 -4 -20 -10 -4 -6 1 -7 11 -3 12 4 15 3 10 -5 -4 -7 -17 -10 -29 -8
-12 3 -24 5 -27 5 -3 1 1 5 9 10 8 5 20 26 27 46 l12 37 -26 -7 c-15 -3 -40
-20 -57 -37 -16 -18 -21 -26 -10 -19 11 8 8 2 -7 -12 -19 -17 -29 -38 -30 -61
-2 -20 -4 -36 -5 -36 -1 0 -13 5 -27 11 -23 11 -24 13 -11 49 13 38 18 73 16
124 -1 24 -3 27 -16 16 -13 -10 -15 -9 -15 9 0 12 5 31 10 42 19 35 -20 22
-62 -21 -34 -37 -38 -39 -38 -18 0 21 -2 20 -22 -9 -26 -37 -28 -38 -53 -19
-18 13 -18 15 -3 38 12 19 14 28 6 36 -8 8 -9 21 -1 47 6 19 8 35 5 35 -10 0
-76 -41 -83 -51 -3 -5 -19 -3 -37 3 -27 11 -32 17 -32 46 0 30 -2 33 -22 27
-13 -4 -31 -9 -40 -11 -25 -7 -67 33 -60 58 5 20 2 21 -37 14 -34 -5 -47 -2
-68 14 -14 11 -32 20 -39 20 -8 0 -14 5 -14 10 0 6 -9 10 -20 10 -12 0 -34 7
-50 15 -16 8 -37 17 -47 18 -10 2 -29 8 -43 14 -35 14 -107 20 -157 13z m-133
-20 c0 -5 -8 -10 -17 -10 -15 0 -16 2 -3 10 19 12 20 12 20 0z m110 -11 c0 -4
-7 -6 -16 -2 -9 3 -20 0 -25 -8 -7 -11 -9 -11 -9 3 0 9 6 18 13 21 15 5 37 -3
37 -14z m27 6 c0 -8 -4 -15 -9 -15 -10 0 -11 14 -1 23 9 10 10 9 10 -8z m-87
-5 c0 -5 -4 -10 -9 -10 -6 0 -13 5 -16 10 -3 6 1 10 9 10 9 0 16 -4 16 -10z
m-103 -36 c-3 -3 -12 -4 -19 -1 -8 3 -5 6 6 6 11 1 17 -2 13 -5z m-63 -29 c-4
-8 -10 -15 -15 -15 -4 0 -6 7 -3 15 4 8 10 15 15 15 4 0 6 -7 3 -15z m599 -2
c3 -5 -6 -9 -19 -9 -13 -1 -24 2 -24 7 0 11 37 12 43 2z m-632 -37 c-14 -17
-51 -28 -51 -15 0 5 9 9 20 9 11 0 20 5 20 10 0 6 5 10 11 10 8 0 8 -4 0 -14z
m696 -2 c-3 -3 -12 -4 -19 -1 -8 3 -5 6 6 6 11 1 17 -2 13 -5z m-157 -9 c0
-11 -41 -25 -53 -18 -8 5 -4 9 13 14 33 9 40 10 40 4z m-130 -25 c0 -5 -5 -10
-11 -10 -5 0 -7 5 -4 10 3 6 8 10 11 10 2 0 4 -4 4 -10z m77 -23 c4 -7 0 -8
-11 -4 -10 4 -26 7 -37 7 -10 0 -19 4 -19 8 0 12 59 2 67 -11z m108 -27 c-3
-5 -10 -10 -16 -10 -5 0 -9 5 -9 10 0 6 7 10 16 10 8 0 12 -4 9 -10z m-415
-14 c0 -3 -4 -8 -10 -11 -5 -3 -10 -1 -10 4 0 6 5 11 10 11 6 0 10 -2 10 -4z
m970 -110 c0 -3 -4 -8 -10 -11 -5 -3 -10 -1 -10 4 0 6 5 11 10 11 6 0 10 -2
10 -4z m-861 -58 c-12 -56 -18 -72 -24 -66 -8 8 15 108 25 108 4 0 4 -19 -1
-42z m823 20 c-7 -7 -12 -8 -12 -2 0 14 12 26 19 19 2 -3 -1 -11 -7 -17z
m-207 -28 c3 -6 -1 -7 -9 -4 -18 7 -21 14 -7 14 6 0 13 -4 16 -10z m-142 -53
c14 -7 22 -18 19 -24 -5 -8 -14 -5 -30 7 -36 29 -30 38 11 17z m577 -42 c-7
-8 -16 -12 -21 -9 -5 3 -8 0 -7 -7 3 -14 -50 -44 -60 -35 -3 4 4 9 16 12 12 4
24 14 27 24 5 17 20 25 49 29 5 0 3 -6 -4 -14z m-513 -11 c-3 -3 -12 -4 -19
-1 -8 3 -5 6 6 6 11 1 17 -2 13 -5z m848 -14 c-3 -5 -12 -10 -18 -10 -7 0 -6
4 3 10 19 12 23 12 15 0z m-818 -15 c8 -9 13 -18 11 -21 -3 -2 -13 5 -23 16
-21 23 -11 27 12 5z m793 -14 c0 -5 -7 -12 -16 -15 -14 -5 -15 -4 -4 9 14 17
20 19 20 6z m-681 -68 c2 -2 1 -6 -2 -9 -4 -4 -13 -1 -22 6 -8 7 -15 9 -15 4
0 -11 -39 38 -40 49 0 4 17 -4 38 -20 20 -15 39 -28 41 -30z m31 -23 c-13 -8
-13 -10 2 -10 10 0 22 -9 28 -19 5 -11 23 -28 40 -37 16 -10 32 -24 34 -31 7
-17 -53 25 -77 55 -10 12 -25 22 -33 22 -15 0 -19 12 -7 23 3 4 11 7 17 7 6 0
4 -5 -4 -10z m90 -16 c0 -2 -7 -4 -15 -4 -8 0 -15 4 -15 10 0 5 7 7 15 4 8 -4
15 -8 15 -10z m56 -59 c-5 -18 1 -27 27 -44 36 -23 32 -27 -10 -9 -40 18 -46
32 -34 86 1 2 6 0 12 -4 6 -3 8 -17 5 -29z m499 15 c-10 -11 -22 -17 -28 -13
-6 3 -7 1 -3 -5 4 -6 -6 -18 -23 -27 -23 -11 -32 -12 -37 -3 -4 6 -2 14 4 16
7 2 19 10 26 18 8 8 24 14 35 14 12 0 21 5 21 10 0 6 5 10 12 10 6 0 3 -8 -7
-20z m-422 -20 c3 -11 2 -20 -3 -20 -4 0 -10 9 -13 20 -3 11 -2 20 3 20 4 0
10 -9 13 -20z m92 10 c3 -5 -1 -10 -10 -10 -9 0 -13 5 -10 10 3 6 8 10 10 10
2 0 7 -4 10 -10z m-125 -14 c0 -3 -4 -8 -10 -11 -5 -3 -10 -1 -10 4 0 6 5 11
10 11 6 0 10 -2 10 -4z m445 -20 c-9 -13 -14 -29 -13 -36 2 -7 -2 -14 -9 -17
-19 -7 -8 46 13 62 26 20 27 19 9 -9z m358 -30 c4 -9 -2 -11 -19 -8 -29 5 -32
17 -5 19 11 1 22 -4 24 -11z m-403 0 c0 -3 -4 -8 -10 -11 -5 -3 -10 -1 -10 4
0 6 5 11 10 11 6 0 10 -2 10 -4z m-1270 -16 c0 -5 -4 -10 -10 -10 -5 0 -10 5
-10 10 0 6 5 10 10 10 6 0 10 -4 10 -10z m1085 0 c3 -5 1 -10 -4 -10 -6 0 -11
5 -11 10 0 6 2 10 4 10 3 0 8 -4 11 -10z m-107 -21 c12 0 10 -3 -6 -10 -25
-10 -42 -5 -42 12 0 6 5 7 10 4 6 -3 10 0 11 7 0 10 2 10 6 1 2 -7 12 -13 21
-14z m657 11 c-3 -5 -10 -10 -16 -10 -5 0 -9 5 -9 10 0 6 7 10 16 10 8 0 12
-4 9 -10z m-48 -16 c-3 -3 -12 -4 -19 -1 -8 3 -5 6 6 6 11 1 17 -2 13 -5z
m-47 -63 c0 -15 -31 -22 -48 -11 -14 9 -13 10 5 5 12 -3 24 -1 28 5 8 12 15
13 15 1z m-762 -21 c-13 -20 -37 -34 -46 -25 -5 5 38 44 51 45 4 0 2 -9 -5
-20z m525 13 c-7 -2 -19 -2 -25 0 -7 3 -2 5 12 5 14 0 19 -2 13 -5z m47 -3 c0
-5 -2 -10 -4 -10 -3 0 -8 5 -11 10 -3 6 -1 10 4 10 6 0 11 -4 11 -10z m785 -8
c-3 -3 -11 0 -18 7 -9 10 -8 11 6 5 10 -3 15 -9 12 -12z m-991 -18 c5 -14 4
-15 -9 -4 -17 14 -19 20 -6 20 5 0 12 -7 15 -16z m345 7 c9 -6 10 -11 2 -15
-13 -8 -31 1 -31 15 0 11 11 11 29 0z m-839 -5 c0 -3 -4 -8 -10 -11 -5 -3 -10
-1 -10 4 0 6 5 11 10 11 6 0 10 -2 10 -4z m230 -10 c0 -3 -4 -8 -10 -11 -5 -3
-10 -1 -10 4 0 6 5 11 10 11 6 0 10 -2 10 -4z m419 -39 c8 -11 4 -13 -20 -9
-22 3 -27 7 -18 13 19 12 25 11 38 -4z m-319 -7 c13 -8 13 -10 -2 -10 -9 0
-20 5 -23 10 -8 13 5 13 25 0z m-920 -11 c0 -5 5 -7 10 -4 6 3 10 1 10 -4 0
-6 -9 -11 -20 -11 -11 0 -20 7 -20 15 0 8 5 15 10 15 6 0 10 -5 10 -11z m1137
5 c-3 -3 -12 -4 -19 -1 -8 3 -5 6 6 6 11 1 17 -2 13 -5z m-427 -24 c0 -5 -2
-10 -4 -10 -3 0 -8 5 -11 10 -3 6 -1 10 4 10 6 0 11 -4 11 -10z m729 1 c7 -5
9 -11 4 -14 -5 -3 -15 -2 -23 3 -7 4 -19 6 -27 3 -7 -3 -13 0 -13 6 0 13 39
14 59 2z m-183 -14 c4 -4 -7 -7 -25 -7 -18 0 -34 -6 -37 -14 -3 -8 -16 -13
-28 -12 l-24 1 22 20 c21 20 77 27 92 12z m-239 -3 c-3 -3 -12 -4 -19 -1 -8 3
-5 6 6 6 11 1 17 -2 13 -5z m1093 3 c0 -2 -10 -12 -22 -23 l-23 -19 19 23 c18
21 26 27 26 19z m-1385 -19 c6 0 18 3 28 7 12 5 17 2 17 -10 0 -9 -4 -13 -10
-10 -5 3 -15 3 -21 -1 -8 -4 -7 -9 2 -15 21 -12 3 -22 -27 -15 -24 6 -25 8 -9
20 16 11 12 13 -28 13 -25 1 -54 6 -64 12 -13 8 -3 9 42 5 33 -4 65 -6 70 -6z
m170 2 c-3 -5 -12 -7 -20 -3 -10 3 -15 -1 -15 -12 0 -21 -24 -14 -28 8 -3 13
4 17 33 17 20 0 34 -4 30 -10z m1102 4 c-3 -3 -12 -4 -19 -1 -8 3 -5 6 6 6 11
1 17 -2 13 -5z m-32 -14 c3 -5 1 -10 -4 -10 -6 0 -11 5 -11 10 0 6 2 10 4 10
3 0 8 -4 11 -10z m-525 -10 c0 -5 -2 -10 -4 -10 -3 0 -8 5 -11 10 -3 6 -1 10
4 10 6 0 11 -4 11 -10z m-785 -10 c-3 -5 -14 -10 -23 -9 -14 0 -13 2 3 9 27
11 27 11 20 0z m615 -24 c-1 -20 -1 -20 -14 -3 -8 10 -17 14 -20 8 -3 -5 0
-11 6 -14 10 -3 10 -7 -1 -20 -7 -9 -17 -14 -22 -11 -14 8 -11 62 4 67 24 8
47 -5 47 -27z m228 15 c3 -8 -1 -12 -9 -9 -7 2 -15 10 -17 17 -3 8 1 12 9 9 7
-2 15 -10 17 -17z m-888 -12 c0 -12 -50 -32 -59 -23 -8 8 39 45 50 38 5 -3 9
-10 9 -15z m200 11 c0 -5 -6 -10 -14 -10 -8 0 -18 5 -21 10 -3 6 3 10 14 10
12 0 21 -4 21 -10z m-305 -10 c-27 -12 -43 -12 -25 0 8 5 22 9 30 9 10 0 8 -3
-5 -9z m360 0 c13 -6 15 -9 5 -9 -8 0 -22 4 -30 9 -18 12 -2 12 25 0z m-328
-25 c-4 -8 -15 -15 -26 -15 -11 0 -21 -5 -23 -12 -2 -6 -10 -8 -17 -4 -16 10
5 36 30 36 10 0 21 5 24 11 10 15 19 3 12 -16z m413 15 c0 -5 -12 -10 -26 -10
-14 0 -23 4 -19 10 3 6 15 10 26 10 10 0 19 -4 19 -10z m212 -34 c-3 -12 -1
-17 6 -12 20 12 23 -14 4 -34 l-19 -21 -22 36 c-11 20 -21 44 -20 53 0 9 7 2
15 -17 8 -18 17 -31 20 -28 3 3 1 15 -6 26 -14 26 -4 46 14 29 7 -7 11 -21 8
-32z m-422 23 c0 -6 7 -9 15 -5 8 3 15 1 15 -4 0 -16 -21 -22 -36 -9 -8 6 -15
10 -17 8 -1 -2 -7 -13 -13 -24 -13 -24 -42 -31 -58 -14 -6 6 -6 10 -1 7 14 -8
55 9 55 22 0 7 -6 8 -19 1 -18 -10 -31 -6 -31 10 0 9 25 16 63 18 15 0 27 -4
27 -10z m-294 -14 c-11 -8 -25 -15 -30 -15 -6 0 -2 7 8 15 11 8 25 15 30 15 6
0 2 -7 -8 -15z m614 -6 c0 -6 -4 -7 -10 -4 -5 3 -10 11 -10 16 0 6 5 7 10 4 6
-3 10 -11 10 -16z m260 -4 c0 -8 -7 -18 -16 -23 -20 -11 -27 -79 -8 -86 8 -3
14 -1 14 4 0 6 -5 10 -12 10 -6 0 -8 3 -5 6 4 4 13 1 21 -5 8 -7 20 -10 25 -6
7 4 8 0 5 -10 -4 -9 -12 -14 -19 -11 -19 7 -27 -5 -14 -21 9 -9 8 -13 0 -13
-6 0 -11 5 -11 10 0 6 -6 10 -14 10 -7 0 -19 7 -27 16 -10 13 -10 19 0 36 7
11 9 23 6 26 -4 4 -11 -2 -17 -12 -8 -15 -12 -16 -19 -5 -8 12 -11 12 -19 -1
-5 -8 -11 -19 -13 -25 -3 -5 -7 -7 -11 -3 -11 9 34 57 48 52 18 -7 66 35 66
57 0 11 5 17 10 14 6 -3 10 -12 10 -20z m405 15 c-3 -5 -12 -10 -18 -10 -7 0
-6 4 3 10 19 12 23 12 15 0z m-1095 -9 c0 -11 -25 -21 -51 -21 -11 0 -18 -4
-14 -9 8 -14 -13 -24 -57 -27 -23 -2 -36 1 -32 7 3 5 14 7 25 4 12 -4 19 -2
19 6 0 7 3 10 6 7 3 -4 22 5 41 18 37 25 63 31 63 15z m195 -1 c3 -6 -1 -13
-10 -16 -19 -8 -30 0 -20 15 8 14 22 14 30 1z m176 -33 c-10 -9 -11 -8 -5 6 3
10 9 15 12 12 3 -3 0 -11 -7 -18z m-615 -20 c-14 -15 -26 -23 -26 -20 0 10 43
54 47 49 2 -2 -7 -15 -21 -29z m419 11 c6 -6 4 -7 -7 -3 -9 4 -30 -1 -47 -9
-34 -18 -61 -21 -61 -6 0 6 14 10 31 10 27 0 30 2 19 15 -11 13 -8 14 21 9 19
-4 39 -11 44 -16z m-371 -25 c-16 -21 -36 -45 -46 -55 -10 -10 -18 -22 -18
-28 0 -5 -4 -10 -10 -10 -19 0 -10 28 18 52 15 13 33 36 41 51 8 15 21 27 29
27 10 0 6 -11 -14 -37z m202 26 c8 -14 -14 -29 -41 -28 -16 0 -14 3 9 13 20 9
25 15 15 19 -8 3 -9 6 -2 6 6 1 15 -4 19 -10z m774 -22 c0 -6 -3 -7 -7 -4 -3
4 -12 2 -20 -5 -18 -15 -22 -8 -12 21 8 19 12 21 24 11 8 -7 15 -17 15 -23z
m36 18 c18 -13 18 -14 -4 -8 -12 3 -25 9 -28 14 -8 14 10 11 32 -6z m941 9
c-3 -3 -12 -4 -19 -1 -8 3 -5 6 6 6 11 1 17 -2 13 -5z m-1506 -31 c12 -16 12
-17 -1 -7 -8 6 -22 14 -30 17 -13 5 -12 6 1 6 9 1 23 -7 30 -16z m1519 9 c0
-4 -10 -13 -22 -21 -23 -14 -23 -14 -4 8 20 22 26 25 26 13z m-2060 -6 c0 -3
-4 -8 -10 -11 -5 -3 -10 -1 -10 4 0 6 5 11 10 11 6 0 10 -2 10 -4z m340 -6 c0
-12 -28 -25 -36 -17 -9 9 6 27 22 27 8 0 14 -5 14 -10z m644 -6 c3 -8 2 -12
-4 -9 -6 3 -10 10 -10 16 0 14 7 11 14 -7z m-846 -20 c10 -18 9 -21 -6 -20 -9
0 -17 -5 -18 -11 -3 -25 -4 -25 -19 -13 -12 10 -11 16 7 41 12 16 22 28 23 26
1 -1 7 -12 13 -23z m27 17 c3 -5 1 -12 -5 -16 -5 -3 -10 1 -10 9 0 18 6 21 15
7z m268 2 c-13 -2 -23 -8 -23 -12 0 -4 -11 -13 -25 -19 -17 -8 -25 -8 -25 -1
0 6 -5 7 -10 4 -7 -4 -7 -12 0 -25 7 -13 5 -21 -8 -31 -15 -13 -16 -12 -3 4
15 20 9 22 -22 6 -19 -9 -18 -7 3 10 27 22 21 28 -11 11 -28 -15 -23 -5 7 15
15 9 37 18 51 20 13 1 29 7 36 14 6 6 20 10 32 10 18 -2 18 -2 -2 -6z m-195
-15 c-2 -6 -12 -12 -22 -14 -14 -2 -15 0 -5 12 14 17 32 19 27 2z m882 -10 c0
-6 -6 -5 -15 2 -8 7 -15 14 -15 16 0 2 7 1 15 -2 8 -4 15 -11 15 -16z m-630 2
c-8 -5 -27 -10 -42 -10 -15 0 -30 -4 -33 -10 -3 -5 -11 -10 -18 -10 -25 0 13
23 50 30 55 11 60 11 43 0z m274 -20 c-10 -4 -22 -6 -26 -3 -4 2 -15 -8 -24
-22 -18 -28 -28 -28 -18 0 8 19 64 46 78 37 5 -3 1 -9 -10 -12z m-484 2 c0
-12 -39 -52 -51 -52 -6 0 -8 -4 -5 -8 3 -5 -13 -32 -34 -61 -22 -29 -40 -48
-40 -41 0 19 33 72 66 106 17 17 34 39 37 48 7 16 27 23 27 8z m1663 -23 c-13
-13 -83 -20 -83 -9 0 14 42 23 50 11 5 -9 10 -7 20 4 7 8 15 13 18 10 3 -3 1
-10 -5 -16z m-1496 5 c-3 -3 -12 -4 -19 -1 -8 3 -5 6 6 6 11 1 17 -2 13 -5z
m93 2 c0 -2 -7 -7 -16 -10 -8 -3 -12 -2 -9 4 6 10 25 14 25 6z m565 -6 c4 -6
-1 -7 -12 -4 -16 5 -16 4 1 -10 23 -18 14 -21 -15 -5 -11 5 -17 14 -14 20 8
12 32 12 40 -1z m-952 -29 c-6 -3 -16 -17 -22 -29 -7 -13 -15 -21 -18 -18 -3
3 5 22 18 42 13 22 25 32 27 25 2 -7 0 -16 -5 -20z m252 21 c-6 -5 -30 -23
-55 -41 l-45 -33 44 41 c24 23 48 41 54 41 7 0 7 -3 2 -8z m455 -6 c0 -3 -4
-8 -10 -11 -5 -3 -10 -1 -10 4 0 6 5 11 10 11 6 0 10 -2 10 -4z m-760 -15 c0
-10 -28 -41 -36 -41 -2 0 -4 7 -4 16 0 8 5 12 10 9 6 -3 10 1 10 9 0 9 5 16
10 16 6 0 10 -4 10 -9z m153 -43 c-34 -51 -51 -74 -41 -53 2 6 12 27 22 47 13
30 37 55 53 58 1 0 -14 -24 -34 -52z m217 39 c-40 -21 -60 -27 -60 -19 0 9 47
29 70 31 8 0 4 -5 -10 -12z m75 3 c-3 -5 -14 -10 -23 -10 -15 0 -15 2 -2 10
20 13 33 13 25 0z m245 0 c0 -5 -7 -10 -16 -10 -8 0 -12 5 -9 10 3 6 10 10 16
10 5 0 9 -4 9 -10z m420 -32 c0 -10 -4 -18 -9 -18 -5 0 -7 9 -4 20 3 12 0 20
-6 20 -7 0 -9 5 -5 11 8 14 24 -8 24 -33z m203 19 c6 3 7 1 3 -5 -4 -6 -14 -8
-23 -5 -11 4 -14 3 -9 -5 9 -15 -5 -15 -25 1 -27 20 -12 37 18 22 15 -8 31
-11 36 -8z m-1459 -2 c-4 -8 -11 -15 -16 -15 -6 0 -5 6 2 15 7 8 14 15 16 15
2 0 1 -7 -2 -15z m335 -25 c-31 -38 -39 -46 -39 -35 0 6 61 75 67 75 2 0 -11
-18 -28 -40z m461 30 c0 -5 -5 -10 -11 -10 -5 0 -7 5 -4 10 3 6 8 10 11 10 2
0 4 -4 4 -10z m1126 -18 c-18 -16 -18 -16 -6 6 6 13 14 21 18 18 3 -4 -2 -14
-12 -24z m-1836 -1 c0 -3 -4 -12 -9 -19 -6 -10 -10 -7 -13 11 -4 18 -1 24 9
20 7 -3 13 -8 13 -12z m1140 -2 c0 -6 -4 -7 -10 -4 -5 3 -10 11 -10 16 0 6 5
7 10 4 6 -3 10 -11 10 -16z m-700 7 c0 -3 -4 -8 -10 -11 -5 -3 -10 -1 -10 4 0
6 5 11 10 11 6 0 10 -2 10 -4z m630 -27 c0 -25 -33 -22 -38 4 -2 12 3 17 17
17 15 0 21 -6 21 -21z m625 12 c3 -5 1 -13 -5 -16 -15 -9 -43 3 -35 15 8 13
32 13 40 1z m-1735 -24 c0 -11 -1 -18 -3 -16 -1 2 -8 11 -15 20 -9 13 -9 16 3
16 8 0 15 -9 15 -20z m364 -10 c-16 -19 -35 -42 -42 -53 -11 -16 -11 -15 -1 6
11 24 58 80 67 80 2 0 -9 -15 -24 -33z m261 -14 c31 -21 8 -15 -40 11 -25 13
-42 26 -38 30 6 6 24 -4 78 -41z m167 31 c-12 -8 -27 -12 -34 -8 -8 5 -6 10 8
15 35 14 50 10 26 -7z m148 12 c0 -2 -7 -6 -15 -10 -8 -3 -15 -1 -15 4 0 6 7
10 15 10 8 0 15 -2 15 -4z m81 -5 c-7 -5 -11 -13 -7 -19 9 -14 -19 -23 -32
-10 -13 13 12 37 38 38 12 0 13 -2 1 -9z m-1254 -23 c-3 -8 -6 -5 -6 6 -1 11
2 17 5 13 3 -3 4 -12 1 -19z m658 12 c-3 -5 -20 -19 -38 -31 l-32 -22 29 31
c28 30 55 44 41 22z m1265 -11 c0 -6 -4 -7 -10 -4 -5 3 -10 11 -10 16 0 6 5 7
10 4 6 -3 10 -11 10 -16z m-1730 3 c0 -5 -7 -17 -15 -28 -14 -18 -14 -17 -4 9
12 27 19 34 19 19z m340 -11 c-5 -11 -14 -23 -20 -26 -5 -3 -7 -12 -4 -19 3
-7 -2 -19 -11 -26 -15 -12 -16 -10 -9 16 4 16 16 39 27 52 25 27 31 28 17 3z
m148 -5 c-25 -19 -14 -24 40 -18 42 4 50 1 64 -19 15 -23 14 -24 -14 -24 -16
0 -32 5 -36 10 -4 6 -31 10 -61 10 -55 0 -84 -19 -33 -21 32 -2 71 -9 92 -17
8 -3 24 -7 34 -9 11 -2 21 -8 23 -14 5 -14 -114 1 -133 17 -8 6 -27 9 -44 7
-25 -4 -28 -2 -18 11 20 27 93 89 98 84 3 -2 -3 -10 -12 -17z m372 15 c0 -5
-7 -12 -16 -15 -14 -5 -15 -4 -4 9 14 17 20 19 20 6z m945 -1 c3 -5 1 -10 -4
-10 -6 0 -11 5 -11 10 0 6 2 10 4 10 3 0 8 -4 11 -10z m-1209 -15 c21 -8 33
-19 29 -25 -5 -8 -12 -7 -23 3 -10 8 -26 19 -37 25 -29 16 -10 14 31 -3z m199
6 c3 -5 1 -12 -5 -16 -5 -3 -10 1 -10 9 0 18 6 21 15 7z m611 -22 c17 -19 17
-20 -12 -4 -16 8 -35 15 -42 15 -7 0 -11 4 -8 9 9 13 42 2 62 -20z m-869 15
c-3 -3 -12 -4 -19 -1 -8 3 -5 6 6 6 11 1 17 -2 13 -5z m593 -24 c13 -10 13
-11 0 -7 -8 2 -22 -2 -31 -10 -14 -12 -17 -12 -22 2 -4 8 -2 15 4 15 6 0 9 7
5 15 -6 16 8 11 44 -15z m540 20 c0 -5 -6 -10 -14 -10 -8 0 -18 5 -21 10 -3 6
3 10 14 10 12 0 21 -4 21 -10z m-760 -10 c0 -5 -4 -10 -10 -10 -5 0 -10 5 -10
10 0 6 5 10 10 10 6 0 10 -4 10 -10z m-186 -16 c5 -14 4 -15 -9 -4 -17 14 -19
20 -6 20 5 0 12 -7 15 -16z m160 1 c3 -8 1 -15 -3 -15 -5 0 -11 7 -15 15 -3 8
-1 15 3 15 5 0 11 -7 15 -15z m487 -22 c13 -16 12 -17 -3 -5 -13 10 -17 10
-21 0 -2 -8 -8 -9 -13 -4 -5 5 -4 11 4 13 10 4 8 9 -5 20 -17 13 -17 13 3 4
11 -5 27 -18 35 -28z m-1526 16 c11 -17 -1 -21 -15 -4 -8 9 -8 15 -2 15 6 0
14 -5 17 -11z m200 -9 c3 -5 1 -10 -4 -10 -6 0 -11 5 -11 10 0 6 2 10 4 10 3
0 8 -4 11 -10z m348 -5 c-3 -9 -8 -14 -10 -11 -3 3 -2 9 2 15 9 16 15 13 8 -4z
m337 -21 c0 -9 -44 14 -48 25 -3 8 5 7 22 -4 14 -10 26 -19 26 -21z m200 32
c0 -2 -7 -9 -15 -16 -13 -11 -14 -10 -9 4 5 14 24 23 24 12z m250 -2 c0 -3 -5
-14 -10 -25 -16 -28 -30 -23 -17 6 11 22 27 34 27 19z m65 -4 c-3 -5 1 -10 9
-10 9 0 16 -7 16 -15 0 -16 -45 -21 -54 -6 -9 14 5 41 21 41 8 0 11 -4 8 -10z
m75 -21 c0 -10 -4 -19 -9 -19 -10 0 -21 36 -14 44 10 10 23 -5 23 -25z m204 5
c37 -5 47 -14 15 -14 -32 0 -97 19 -104 30 -3 5 9 4 27 -1 18 -6 46 -13 62
-15z m291 16 c-3 -5 -16 -15 -28 -21 -19 -9 -19 -8 3 10 28 23 34 26 25 11z
m-1150 -18 c-3 -3 -11 0 -18 7 -9 10 -8 11 6 5 10 -3 15 -9 12 -12z m332 -7
c-23 -22 -33 -18 -12 5 10 11 20 18 23 16 2 -3 -3 -12 -11 -21z m-735 -7 c-7
-7 -12 -8 -12 -2 0 14 12 26 19 19 2 -3 -1 -11 -7 -17z m90 -10 c-7 -7 -12 -8
-12 -2 0 14 12 26 19 19 2 -3 -1 -11 -7 -17z m848 12 c0 -5 -5 -10 -11 -10 -5
0 -7 5 -4 10 3 6 8 10 11 10 2 0 4 -4 4 -10z m827 -9 c-12 -8 -26 -21 -30 -28
-4 -7 -13 -13 -19 -13 -7 0 -6 6 2 15 11 13 10 14 -6 8 -16 -6 -17 -5 -6 9 10
13 10 17 0 21 -7 3 8 5 34 4 44 -1 45 -2 25 -16z m-1353 -17 c7 -19 -4 -17
-33 5 l-25 19 26 -5 c15 -3 29 -11 32 -19z m681 7 c-3 -6 -11 -11 -16 -11 -5
0 -4 6 3 14 14 16 24 13 13 -3z m-607 -6 c1 -1 -4 -7 -11 -14 -11 -8 -18 -6
-33 10 -18 20 -18 20 11 13 17 -4 31 -8 33 -9z m703 -2 c13 -16 12 -17 -3 -4
-17 13 -22 21 -14 21 2 0 10 -8 17 -17z m309 13 c0 -3 -4 -8 -10 -11 -5 -3
-10 -1 -10 4 0 6 5 11 10 11 6 0 10 -2 10 -4z m-1296 -23 c7 -17 -40 -29 -58
-13 -11 8 -20 9 -35 0 -12 -6 -21 -7 -21 -1 0 24 105 37 114 14z m1336 13 c0
-3 -4 -8 -10 -11 -5 -3 -10 -1 -10 4 0 6 5 11 10 11 6 0 10 -2 10 -4z m-1983
-38 c-3 -7 -5 -2 -5 12 0 14 2 19 5 13 2 -7 2 -19 0 -25z m743 1 c10 -6 -1 -8
-32 -9 -37 0 -48 4 -48 16 0 12 7 14 33 9 17 -4 39 -11 47 -16z m844 7 c-10
-8 -21 -12 -24 -10 -5 6 21 24 34 24 6 0 1 -6 -10 -14z m360 1 c-2 -7 -14 -19
-27 -26 -21 -14 -21 -13 -7 5 14 17 31 33 37 34 1 0 0 -6 -3 -13z m-414 -16
c0 -14 -18 -23 -31 -15 -8 4 -7 9 2 15 18 11 29 11 29 0z m104 -7 c3 -8 2 -12
-4 -9 -6 3 -10 10 -10 16 0 14 7 11 14 -7z m-973 -10 c7 -4 26 -11 43 -15 l31
-7 -32 -1 c-17 -1 -35 4 -39 10 -5 8 -9 7 -14 -1 -5 -8 -15 -10 -26 -5 -11 5
-30 9 -44 10 -14 1 -40 2 -58 3 -20 1 -31 6 -27 12 7 12 146 7 166 -6z m133
-33 c-7 -8 -33 33 -27 43 3 5 12 -2 19 -15 7 -13 10 -26 8 -28z m500 25 c-10
-8 -23 -12 -27 -9 -5 3 2 11 15 17 29 16 38 10 12 -8z m-454 -13 c0 -20 -24
-11 -28 10 -2 12 1 15 12 11 9 -3 16 -13 16 -21z m1575 7 c3 -5 1 -10 -4 -10
-6 0 -11 5 -11 10 0 6 2 10 4 10 3 0 8 -4 11 -10z m-1635 -54 c0 -10 -14 -6
-33 8 -10 8 -15 20 -11 30 5 14 9 12 25 -8 10 -13 19 -27 19 -30z m750 50 c0
-3 -4 -8 -10 -11 -5 -3 -10 -1 -10 4 0 6 5 11 10 11 6 0 10 -2 10 -4z m145
-15 c-3 -6 -11 -11 -17 -11 -6 0 -6 6 2 15 14 17 26 13 15 -4z m-1056 -16 c9
-9 21 -11 37 -5 17 7 22 6 18 -4 -3 -8 -16 -12 -32 -9 -15 2 -40 6 -57 8 -106
12 -135 19 -124 26 19 11 142 -1 158 -16z m765 16 c3 -5 -1 -11 -9 -15 -15 -6
-29 7 -18 18 9 9 21 8 27 -3z m216 -11 c0 -11 -4 -20 -9 -20 -14 0 -23 18 -16
30 10 17 25 11 25 -10z m110 5 c11 -13 10 -14 -4 -9 -9 3 -16 10 -16 15 0 13
6 11 20 -6z m75 5 c-3 -5 -10 -10 -16 -10 -5 0 -9 5 -9 10 0 6 7 10 16 10 8 0
12 -4 9 -10z m-225 -20 c0 -5 -2 -10 -4 -10 -3 0 -8 5 -11 10 -3 6 -1 10 4 10
6 0 11 -4 11 -10z m-1493 -6 c-3 -3 -12 -4 -19 -1 -8 3 -5 6 6 6 11 1 17 -2
13 -5z m499 -21 c15 -11 12 -13 -27 -13 -24 0 -62 7 -84 15 l-40 15 67 -2 c37
-2 75 -8 84 -15z m964 7 c0 -15 -43 -50 -70 -57 -14 -3 -31 -10 -37 -16 -9 -6
-13 -6 -13 2 0 6 5 11 10 11 6 0 9 5 8 12 -2 8 8 11 29 9 27 -2 35 2 44 23 12
26 29 35 29 16z m316 -15 c1 -8 -4 -11 -11 -8 -8 2 -11 11 -8 19 6 16 16 11
19 -11z m-261 5 c-3 -5 0 -10 7 -10 7 -1 2 -7 -11 -14 -16 -9 -20 -16 -12 -20
7 -4 18 -3 26 4 18 15 31 -6 14 -26 -8 -10 -22 -13 -44 -8 -43 8 -54 -11 -18
-30 l28 -15 -40 -1 c-22 -1 -70 -3 -107 -6 -41 -2 -68 0 -68 6 0 6 17 10 38
10 20 0 44 4 52 10 9 5 19 5 28 -2 9 -8 16 -8 24 0 9 9 8 12 -5 12 -9 0 -17 5
-17 10 0 6 9 10 19 10 19 0 71 52 71 71 0 5 5 9 11 9 5 0 7 -4 4 -10z m-935
-12 c0 -13 -24 -21 -28 -10 -2 7 -8 10 -13 6 -5 -3 -9 -1 -9 4 0 6 11 9 25 8
14 0 25 -4 25 -8z m-152 -14 c38 -6 40 -8 25 -20 -23 -17 -53 -18 -53 -1 0 12
-13 15 -75 17 -22 1 -26 4 -15 11 8 5 29 7 45 4 17 -2 49 -7 73 -11z m88 -21
c-3 -3 -13 -2 -23 2 -17 7 -17 8 2 15 19 7 34 -5 21 -17z m94 6 c0 -5 -7 -9
-15 -9 -15 0 -20 12 -9 23 8 8 24 -1 24 -14z m490 11 c0 -5 -4 -10 -10 -10 -5
0 -10 5 -10 10 0 6 5 10 10 10 6 0 10 -4 10 -10z m724 -16 c4 -10 1 -14 -6
-12 -15 5 -23 28 -10 28 5 0 13 -7 16 -16z m-1174 -4 c0 -5 -2 -10 -4 -10 -3
0 -8 5 -11 10 -3 6 -1 10 4 10 6 0 11 -4 11 -10z m-311 -16 c-13 -16 -57 -15
-63 3 -4 11 3 13 34 11 29 -1 37 -5 29 -14z m54 2 c7 -19 -1 -26 -31 -26 -24
0 -25 1 -7 20 21 24 31 25 38 6z m1480 7 c-7 -2 -19 -2 -25 0 -7 3 -2 5 12 5
14 0 19 -2 13 -5z m-83 -13 c-8 -5 -19 -10 -25 -10 -5 0 -3 5 5 10 8 5 20 10
25 10 6 0 3 -5 -5 -10z m-1720 -20 c0 -5 -5 -10 -11 -10 -5 0 -7 5 -4 10 3 6
8 10 11 10 2 0 4 -4 4 -10z m346 -5 c-8 -8 -18 -15 -22 -15 -3 0 -1 7 6 15 7
8 17 15 22 15 5 0 3 -7 -6 -15z m1309 -5 c17 -18 17 -20 2 -14 -9 3 -17 11
-17 16 0 6 -7 7 -16 4 -8 -3 -12 -2 -9 4 9 15 20 12 40 -10z m-1417 -2 c-5
-16 -48 -24 -48 -9 0 8 17 16 43 20 5 0 7 -5 5 -11z m44 -26 c-27 -4 -37 2
-27 17 4 8 13 7 28 -1 l22 -13 -23 -3z m-103 4 c9 -10 8 -15 -3 -19 -16 -6
-40 16 -29 26 10 11 19 8 32 -7z m1348 -8 c-3 -8 -6 -5 -6 6 -1 11 2 17 5 13
3 -3 4 -12 1 -19z m213 2 c0 -5 12 -20 27 -34 15 -14 24 -28 20 -32 -4 -4 -1
-14 6 -23 10 -14 10 -14 -5 -3 -9 8 -14 20 -12 27 3 8 -5 19 -18 26 -33 17
-51 49 -28 49 6 0 10 -4 10 -10z m-1485 -10 c3 -5 16 -10 27 -10 12 0 19 -3
16 -6 -9 -9 -78 7 -72 17 7 12 21 11 29 -1z m895 -3 c0 -7 -9 -13 -20 -14 -16
-1 -17 1 -7 12 15 18 27 19 27 2z m-1010 -13 c0 -8 -5 -12 -10 -9 -6 4 -8 11
-5 16 9 14 15 11 15 -7z m1250 1 c5 3 11 1 15 -5 3 -5 -6 -12 -21 -16 -19 -5
-22 -9 -12 -15 7 -5 20 -9 28 -9 13 0 13 1 0 10 -12 8 -9 10 10 8 14 -2 31 -9
38 -15 7 -7 20 -13 27 -13 8 0 17 -5 20 -11 4 -5 -10 -3 -31 6 -20 8 -40 12
-43 9 -3 -4 0 -9 7 -11 6 -3 9 -10 6 -15 -4 -7 -2 -8 4 -4 6 3 16 -3 23 -15
10 -20 9 -21 -7 -15 -18 6 -18 5 0 -9 22 -17 56 -65 56 -79 0 -6 -11 6 -25 25
-25 33 -70 55 -80 39 -3 -5 -27 3 -53 17 -34 18 -41 20 -23 5 31 -25 12 -38
-28 -17 -35 17 -45 19 -36 5 3 -5 2 -10 -4 -10 -5 0 -12 4 -16 9 -3 5 -19 12
-35 16 -17 4 -30 11 -30 17 0 12 53 1 58 -13 2 -5 8 -9 13 -9 6 0 7 5 4 10 -9
15 2 12 32 -7 l26 -18 -17 26 -17 26 28 -5 c16 -3 37 -11 48 -18 11 -8 25 -14
33 -14 20 0 26 28 9 44 -13 14 -16 14 -21 1 -3 -8 0 -15 6 -15 6 0 9 -3 5 -6
-6 -7 -39 10 -38 19 1 4 -1 6 -3 5 -2 -2 -12 5 -23 14 -30 27 -163 25 -198 -3
-6 -4 -25 -7 -43 -7 -29 1 -31 3 -19 15 8 8 35 16 60 17 24 2 49 6 54 9 5 3
28 7 51 8 23 2 42 6 42 10 0 11 72 16 93 6 9 -4 22 -5 27 -2z m120 -15 c10 0
11 -3 3 -11 -8 -8 -19 -6 -39 6 -28 15 -28 16 -4 11 14 -3 32 -6 40 -6z
m-1341 -19 c-24 -20 -24 -20 -4 -36 18 -15 18 -16 2 -11 -10 3 -23 6 -29 6 -6
0 -8 7 -4 15 5 14 -11 21 -37 16 -5 -1 -6 3 -2 8 3 6 19 8 35 4 19 -3 30 -1
30 6 0 6 7 11 16 11 12 0 11 -5 -7 -19z m106 9 c16 -7 13 -9 -17 -9 -21 -1
-38 4 -38 9 0 12 27 12 55 0z m1335 -20 c12 -8 9 -10 -13 -10 -16 0 -26 4 -22
10 8 12 16 12 35 0z m419 -17 c2 -2 -3 -3 -11 -3 -9 0 -19 7 -22 16 -6 15 -4
15 11 3 10 -7 20 -15 22 -16z m-1924 -3 c17 -7 14 -9 -13 -9 -20 -1 -31 3 -27
9 7 12 13 12 40 0z m105 0 c0 -5 -5 -10 -11 -10 -5 0 -7 5 -4 10 3 6 8 10 11
10 2 0 4 -4 4 -10z m67 4 c-3 -3 -12 -4 -19 -1 -8 3 -5 6 6 6 11 1 17 -2 13
-5z m718 -4 c-3 -5 -14 -10 -23 -9 -14 0 -13 2 3 9 27 11 27 11 20 0z m1030
-26 c19 -16 19 -16 -5 -9 -31 9 -50 25 -29 25 7 0 23 -8 34 -16z m-1735 2 c0
-2 -9 -6 -20 -9 -11 -3 -18 -1 -14 4 5 9 34 13 34 5z m1630 -44 c-9 -3 -90 35
-90 43 0 2 22 -6 49 -18 27 -12 45 -23 41 -25z m310 38 c0 -5 -4 -10 -10 -10
-5 0 -10 5 -10 10 0 6 5 10 10 10 6 0 10 -4 10 -10z m-2003 -6 c-3 -3 -12 -4
-19 -1 -8 3 -5 6 6 6 11 1 17 -2 13 -5z m1728 -18 c0 -13 -3 -22 -7 -19 -5 2
-8 13 -8 24 0 10 3 19 8 19 4 0 7 -11 7 -24z m-1740 -16 c-3 -5 -14 -10 -23
-10 -15 0 -15 2 -2 10 20 13 33 13 25 0z m975 0 c12 -8 9 -10 -13 -10 -16 0
-26 4 -22 10 8 12 16 12 35 0z m810 -22 c0 -6 -7 -5 -15 2 -8 7 -15 17 -15 22
0 6 7 5 15 -2 8 -7 15 -17 15 -22z m-1863 16 c-3 -3 -12 -4 -19 -1 -8 3 -5 6
6 6 11 1 17 -2 13 -5z m1147 -3 c-2 -2 1 -10 7 -18 14 -17 1 -16 -30 1 -14 8
-31 12 -38 9 -7 -3 -13 -1 -13 5 0 5 18 9 39 9 22 -1 37 -4 35 -6z m106 -27
c0 -8 -4 -12 -10 -9 -5 3 -10 13 -10 21 0 8 5 12 10 9 6 -3 10 -13 10 -21z
m365 16 c3 -6 -1 -7 -9 -4 -18 7 -21 14 -7 14 6 0 13 -4 16 -10z m-420 -10
c-3 -5 -12 -10 -18 -10 -7 0 -6 4 3 10 19 12 23 12 15 0z m-1135 -4 c0 -2 -7
-9 -15 -16 -13 -11 -14 -10 -9 4 5 14 24 23 24 12z m1020 -12 l-25 -15 28 4
c29 5 37 -7 11 -17 -28 -11 -59 -6 -84 11 l-24 17 24 6 c14 3 41 7 60 7 l35 1
-25 -14z m389 -21 c2 -2 0 -3 -6 -3 -6 0 -21 9 -34 21 l-24 20 30 -17 c17 -10
32 -19 34 -21z m-1519 7 c9 -6 10 -10 3 -10 -6 0 -18 -3 -27 -6 -11 -4 -16 -1
-16 10 0 18 17 21 40 6z m1850 -5 c0 -8 -4 -15 -10 -15 -5 0 -10 6 -10 13 0 7
-3 8 -8 2 -7 -10 -52 -19 -52 -10 0 8 41 24 63 24 9 1 17 -6 17 -14z m-571
-14 c9 -16 8 -18 -9 -14 -11 3 -20 12 -20 19 0 20 18 17 29 -5z m808 13 c-3
-3 -12 -4 -19 -1 -8 3 -5 6 6 6 11 1 17 -2 13 -5z m-1247 -19 c0 -8 -7 -15
-16 -15 -14 0 -14 3 -4 15 7 8 14 15 16 15 2 0 4 -7 4 -15z m86 1 c12 -13 18
-13 42 0 34 18 44 18 68 -2 18 -15 18 -15 -5 -10 -13 3 -39 -1 -58 -9 -18 -8
-33 -10 -33 -4 0 5 -11 9 -24 9 -38 0 -43 21 -8 29 2 1 10 -5 18 -13z m490
-18 c26 -28 26 -29 4 -15 -13 10 -32 17 -42 17 -11 0 -15 5 -12 15 9 22 17 19
50 -17z m-1448 0 c-2 -6 -10 -14 -16 -16 -7 -2 -10 2 -6 12 7 18 28 22 22 4z
m1772 2 c0 -5 -4 -10 -10 -10 -5 0 -10 5 -10 10 0 6 5 10 10 10 6 0 10 -4 10
-10z m31 -7 c13 -16 12 -17 -3 -4 -10 7 -18 15 -18 17 0 8 8 3 21 -13z m169
-4 c0 -6 -4 -7 -10 -4 -5 3 -10 11 -10 16 0 6 5 7 10 4 6 -3 10 -11 10 -16z
m-1050 -15 c-29 -15 -70 -18 -70 -5 0 9 20 14 70 18 l25 1 -25 -14z m270 6
c-20 -13 -33 -13 -25 0 3 6 14 10 23 10 15 0 15 -2 2 -10z m725 0 c3 -6 -1 -7
-9 -4 -18 7 -21 14 -7 14 6 0 13 -4 16 -10z m122 -1 c-14 -8 -22 -8 -30 0 -8
8 -3 11 19 11 25 -1 27 -2 11 -11z m-402 -9 c3 -6 -1 -7 -9 -4 -18 7 -21 14
-7 14 6 0 13 -4 16 -10z m306 -17 c-12 -20 -14 -14 -5 12 4 9 9 14 11 11 3 -2
0 -13 -6 -23z m-955 -20 c-6 -6 -46 20 -46 30 0 4 11 0 25 -9 14 -9 24 -19 21
-21z m121 8 c-2 -25 -38 -32 -60 -11 -16 15 -15 16 16 13 17 -2 26 0 18 3 -11
5 -11 8 0 15 18 11 28 3 26 -20z m865 7 c-7 -7 -12 -8 -12 -2 0 6 3 14 7 17 3
4 9 5 12 2 2 -3 -1 -11 -7 -17z m-1995 -10 c-3 -8 -6 -5 -6 6 -1 11 2 17 5 13
3 -3 4 -12 1 -19z m1267 7 c-7 -16 -23 -19 -51 -8 -14 6 -11 9 17 14 19 4 36
7 37 8 1 0 0 -6 -3 -14z m124 -13 c2 -6 -5 -8 -17 -5 -12 3 -21 9 -21 13 0 4
-12 6 -27 4 -28 -4 -28 -4 -3 5 27 8 62 0 68 -17z m746 12 c3 -8 2 -12 -4 -9
-6 3 -10 10 -10 16 0 14 7 11 14 -7z m-1168 -42 c-7 -12 -46 -23 -46 -13 0 4
5 12 12 19 6 6 8 15 3 19 -4 5 -10 2 -12 -4 -3 -7 -9 -13 -15 -13 -6 0 -3 9 6
19 18 19 19 19 38 1 11 -10 17 -23 14 -28z m526 21 c31 -36 31 -47 0 -18 -18
16 -32 31 -32 32 0 9 19 0 32 -14z m375 -5 c13 -12 23 -25 23 -29 0 -5 -12 3
-26 16 -14 13 -42 26 -62 28 l-37 4 39 1 c29 2 46 -4 63 -20z m407 7 c-4 -8
-11 -12 -16 -9 -6 4 -5 10 3 15 19 12 19 11 13 -6z m-814 -11 c0 -2 -9 -4 -21
-4 -11 0 -18 4 -14 10 5 8 35 3 35 -6z m269 -44 c17 0 32 -4 35 -9 10 -15 -53
-5 -72 12 -10 9 -18 26 -19 39 -1 19 2 17 13 -9 11 -27 20 -33 43 -33z m239
25 c-3 -3 -9 2 -12 12 -6 14 -5 15 5 6 7 -7 10 -15 7 -18z m57 5 c-3 -5 -14
-10 -23 -10 -15 0 -15 2 -2 10 20 13 33 13 25 0z m315 6 c0 -3 -4 -8 -10 -11
-5 -3 -10 -1 -10 4 0 6 5 11 10 11 6 0 10 -2 10 -4z m-1449 -38 c6 -11 7 -18
2 -15 -4 3 -25 -3 -46 -13 -20 -10 -37 -15 -37 -10 0 5 16 14 36 20 26 9 33
15 25 23 -6 6 -11 15 -11 20 0 13 19 -2 31 -25z m769 11 c0 -6 -4 -7 -10 -4
-5 3 -10 11 -10 16 0 6 5 7 10 4 6 -3 10 -11 10 -16z m-373 4 c-4 -3 1 -12 11
-19 15 -12 14 -13 -10 -14 -38 0 -37 32 1 39 2 1 1 -2 -2 -6z m323 -14 c0 -14
-16 -11 -29 5 -10 12 -8 13 8 9 12 -3 21 -9 21 -14z m-202 -18 c31 -27 28 -47
-4 -22 -15 12 -33 21 -40 21 -8 0 -14 5 -14 10 0 16 33 11 58 -9z m407 9 c-3
-5 -13 -10 -21 -10 -8 0 -14 5 -14 10 0 6 9 10 21 10 11 0 17 -4 14 -10z
m-2905 -10 c0 -5 -2 -10 -4 -10 -3 0 -8 5 -11 10 -3 6 -1 10 4 10 6 0 11 -4
11 -10z m2235 -2 c3 -3 -6 -8 -20 -10 -23 -5 -32 2 -19 14 6 7 31 4 39 -4z
m366 -5 c13 -16 12 -17 -3 -4 -17 13 -22 21 -14 21 2 0 10 -8 17 -17z m-496
-3 c8 -13 -20 -24 -42 -16 -15 6 -15 8 -3 16 20 13 37 12 45 0z m507 -54 c9
-17 6 -16 -20 5 -16 13 -33 32 -35 43 -5 16 -2 15 20 -5 13 -13 30 -33 35 -43z
m214 23 c3 -6 -8 -4 -24 5 -17 9 -33 20 -37 25 -3 5 8 3 25 -5 16 -9 32 -20
36 -25z m212 27 c-7 -8 -15 -10 -17 -4 -1 5 -12 2 -22 -8 -10 -9 -19 -14 -19
-9 0 12 33 34 53 35 15 0 16 -2 5 -14z m82 -43 c0 -4 -52 8 -64 15 -5 3 -1 8
9 12 15 5 55 -14 55 -27z m44 28 c-2 -2 1 -10 7 -18 17 -19 1 -16 -27 6 l-24
19 24 -2 c13 0 22 -3 20 -5z m-1161 -20 c-6 -25 -35 -37 -31 -13 3 17 17 32
30 32 3 0 4 -9 1 -19z m427 -34 c0 -6 -23 4 -50 21 -2 2 2 7 10 12 13 8 39
-13 40 -33z m-475 23 c-3 -5 -12 -10 -18 -10 -7 0 -6 4 3 10 19 12 23 12 15 0z
m335 0 c0 -5 -6 -10 -12 -10 -7 0 -24 -3 -38 -7 -22 -6 -24 -5 -11 10 15 18
61 23 61 7z m460 -20 c9 -18 8 -18 -20 -9 -35 13 -54 35 -20 24 17 -5 21 -4
15 5 -5 9 -4 11 3 6 7 -4 16 -16 22 -26z m40 -1 c6 -11 9 -25 6 -32 -2 -7 -5
-5 -5 5 -1 9 -8 24 -17 32 -8 9 -11 16 -5 16 6 0 15 -9 21 -21z m251 11 c10
-6 19 -16 19 -22 0 -6 -7 -5 -17 5 -10 8 -29 17 -43 20 -24 4 -24 4 -2 6 13 0
32 -4 43 -9z m104 -10 c3 -5 2 -10 -4 -10 -5 0 -13 5 -16 10 -3 6 -2 10 4 10
5 0 13 -4 16 -10z m-1021 -9 c7 -11 -22 -23 -35 -15 -5 3 -7 10 -4 15 8 12 32
12 39 0z m1126 -17 c0 -2 -9 0 -20 6 -11 6 -20 13 -20 16 0 2 9 0 20 -6 11 -6
20 -13 20 -16z m-713 -9 c2 -11 0 -14 -3 -7 -3 6 -17 12 -30 12 -15 0 -23 4
-19 11 11 17 50 6 52 -16z m-1004 -27 c6 -21 2 -36 -7 -27 -10 11 -16 49 -8
49 5 0 12 -10 15 -22z m1085 -3 c-3 -3 -9 2 -12 12 -6 14 -5 15 5 6 7 -7 10
-15 7 -18z m713 -12 c12 -16 12 -17 -1 -7 -8 6 -22 14 -30 17 -13 5 -12 6 1 6
9 1 23 -7 30 -16z m-491 -13 c10 -18 9 -19 -15 -8 -27 12 -33 28 -10 28 8 0
19 -9 25 -20z m280 10 c0 -5 -2 -10 -4 -10 -3 0 -8 5 -11 10 -3 6 -1 10 4 10
6 0 11 -4 11 -10z m-1225 -10 c-28 -12 -37 -12 -30 0 3 6 16 10 28 9 21 0 21
-1 2 -9z m1570 0 c3 -5 1 -10 -4 -10 -6 0 -11 5 -11 10 0 6 2 10 4 10 3 0 8
-4 11 -10z m-2003 -43 l27 -42 -25 -19 c-20 -15 -23 -21 -12 -28 10 -8 10 -9
-2 -5 -8 2 -22 -2 -31 -10 -16 -13 -17 -9 -14 49 2 62 11 98 24 98 3 -1 18
-20 33 -43z m133 33 c3 -5 2 -10 -4 -10 -5 0 -13 5 -16 10 -3 6 -2 10 4 10 5
0 13 -4 16 -10z m1575 -16 c0 -8 4 -13 9 -10 11 7 26 -11 36 -43 5 -16 4 -21
-4 -17 -6 4 -11 17 -12 29 0 12 -3 16 -6 10 -8 -22 -21 -14 -32 18 -13 39 -14
42 -1 34 6 -3 10 -13 10 -21z m30 16 c0 -5 -2 -10 -4 -10 -3 0 -8 5 -11 10 -3
6 -1 10 4 10 6 0 11 -4 11 -10z m60 2 c0 -4 -9 -8 -20 -9 -11 -1 -20 2 -20 8
0 5 9 9 20 9 11 0 20 -4 20 -8z m136 -20 c-10 -2 -26 3 -35 12 -15 15 -13 16
19 4 26 -9 30 -13 16 -16z m-1535 -19 c13 -16 12 -17 -3 -4 -10 7 -18 15 -18
17 0 8 8 3 21 -13z m1610 0 c13 -16 12 -17 -3 -4 -17 13 -22 21 -14 21 2 0 10
-8 17 -17z m-3031 3 c0 -3 -4 -8 -10 -11 -5 -3 -10 -1 -10 4 0 6 5 11 10 11 6
0 10 -2 10 -4z m3026 -27 c4 -8 1 -8 -14 0 -12 6 -24 16 -28 22 -4 8 -1 8 14
0 12 -6 24 -16 28 -22z m-1826 6 c7 -9 8 -15 2 -15 -5 0 -12 7 -16 15 -3 8 -4
15 -2 15 2 0 9 -7 16 -15z m1640 -4 c0 -13 -30 -22 -43 -14 -7 4 -2 10 13 14
14 4 26 7 28 8 1 1 2 -3 2 -8z m-1484 -13 c3 -4 -1 -5 -10 -4 -8 1 -18 5 -22
8 -3 4 1 5 10 4 8 -1 18 -5 22 -8z m44 2 c0 -5 -5 -10 -11 -10 -5 0 -7 5 -4
10 3 6 8 10 11 10 2 0 4 -4 4 -10z m1085 -18 c-7 -8 -45 10 -40 19 4 5 14 3
25 -3 11 -7 17 -14 15 -16z m601 -49 c-2 -2 -19 0 -37 6 -28 7 -29 9 -10 10
21 1 22 3 10 19 -7 9 -1 6 14 -7 15 -14 25 -26 23 -28z m-470 0 c-7 -7 -26 7
-26 19 0 6 6 6 15 -2 9 -7 13 -15 11 -17z m-296 -4 c0 -6 -4 -7 -10 -4 -5 3
-10 11 -10 16 0 6 5 7 10 4 6 -3 10 -11 10 -16z m565 1 c3 -5 1 -10 -4 -10 -6
0 -11 5 -11 10 0 6 2 10 4 10 3 0 8 -4 11 -10z m-243 -21 c3 -9 10 -9 26 0 24
13 30 0 8 -18 -10 -9 -19 -7 -37 9 -13 10 -19 19 -12 20 6 0 13 -5 15 -11z
m309 -7 c-7 -2 -18 1 -23 6 -8 8 -4 9 13 5 13 -4 18 -8 10 -11z m-31 -7 c10
-12 10 -15 -2 -15 -8 0 -15 7 -15 15 0 8 1 15 2 15 2 0 8 -7 15 -15z m160 5
c0 -5 -2 -10 -4 -10 -3 0 -8 5 -11 10 -3 6 -1 10 4 10 6 0 11 -4 11 -10z
m-686 -6 c9 -3 16 -10 16 -14 0 -10 -38 -1 -46 11 -6 10 7 12 30 3z m513 -51
c18 -23 41 -47 51 -52 9 -6 11 -11 5 -11 -7 0 -31 18 -54 41 -29 29 -45 38
-60 34 -11 -4 -19 -2 -19 4 0 6 7 11 16 11 8 0 12 5 9 10 -4 6 -1 9 7 8 7 -2
27 -22 45 -45z m-387 27 c0 -5 -4 -10 -9 -10 -6 0 -13 5 -16 10 -3 6 1 10 9
10 9 0 16 -4 16 -10z m200 6 c0 -2 -8 -10 -17 -17 -16 -13 -17 -12 -4 4 13 16
21 21 21 13z m384 -11 c-4 -8 -1 -15 6 -15 7 0 10 -7 6 -15 -3 -9 1 -18 9 -21
8 -4 15 -11 15 -17 0 -5 -9 -2 -20 8 -11 10 -17 21 -15 26 3 4 -8 10 -25 14
-16 4 -33 11 -36 17 -4 6 1 8 14 4 11 -4 23 -2 27 4 10 16 25 12 19 -5z
m-2904 1 c0 -2 -7 -9 -15 -16 -13 -11 -14 -10 -9 4 5 14 24 23 24 12z m1440
-6 c0 -5 -4 -10 -10 -10 -5 0 -10 5 -10 10 0 6 5 10 10 10 6 0 10 -4 10 -10z
m1163 -1 c9 6 13 1 14 -20 2 -20 -2 -29 -12 -29 -9 0 -15 10 -15 23 -1 22 -1
22 -14 -3 -13 -23 -12 -27 25 -67 55 -60 48 -67 -10 -9 l-49 48 22 33 c11 18
23 28 24 23 2 -5 9 -5 15 1z m222 -3 c18 -13 18 -14 -8 -9 -15 3 -30 9 -33 14
-8 14 20 10 41 -5z m-445 -15 c0 -5 -6 -14 -14 -20 -11 -9 -16 -9 -21 0 -4 6
-1 15 6 20 18 11 29 11 29 0z m-1060 -10 c0 -9 -33 -21 -59 -21 -11 0 -11 3
-1 15 13 16 60 21 60 6z m1210 5 c0 -3 -4 -8 -10 -11 -5 -3 -10 -1 -10 4 0 6
5 11 10 11 6 0 10 -2 10 -4z m-1694 -37 c3 -6 -5 -3 -20 6 -14 10 -26 19 -26
22 0 7 39 -17 46 -28z m1564 11 c0 -5 -2 -10 -4 -10 -3 0 -8 5 -11 10 -3 6 -1
10 4 10 6 0 11 -4 11 -10z m265 -8 c-3 -3 -11 0 -18 7 -9 10 -8 11 6 5 10 -3
15 -9 12 -12z m-2644 -9 c13 -17 13 -17 -6 -3 -11 8 -22 16 -24 17 -2 2 0 3 6
3 6 0 17 -8 24 -17z m736 -13 c14 -11 22 -20 18 -20 -4 0 -18 9 -32 20 -14 11
-22 20 -18 20 4 0 18 -9 32 -20z m468 10 c3 -5 -3 -10 -15 -10 -12 0 -18 5
-15 10 3 6 10 10 15 10 5 0 12 -4 15 -10z m1050 -10 c3 -5 1 -10 -4 -10 -6 0
-11 5 -11 10 0 6 2 10 4 10 3 0 8 -4 11 -10z m-2213 -42 c-7 -7 -12 -8 -12 -2
0 14 12 26 19 19 2 -3 -1 -11 -7 -17z m1153 12 c3 -5 3 -10 -2 -10 -4 0 -18
-3 -30 -6 -17 -5 -23 -2 -23 10 0 18 45 23 55 6z m-515 -10 c0 -5 -7 -10 -15
-10 -8 0 -15 5 -15 10 0 6 7 10 15 10 8 0 15 -4 15 -10z m45 -20 c3 -6 -1 -7
-9 -4 -18 7 -21 14 -7 14 6 0 13 -4 16 -10z m1785 0 c0 -5 -4 -10 -10 -10 -5
0 -10 5 -10 10 0 6 5 10 10 10 6 0 10 -4 10 -10z m-165 -10 c-3 -5 -12 -10
-18 -10 -7 0 -6 4 3 10 19 12 23 12 15 0z m-2335 -20 c0 -5 -5 -10 -11 -10 -5
0 -7 5 -4 10 3 6 8 10 11 10 2 0 4 -4 4 -10z m660 -10 c13 -11 21 -22 18 -25
-2 -3 -15 6 -28 20 -28 30 -22 33 10 5z m1965 10 c-4 -6 -1 -19 6 -28 12 -16
12 -16 -5 0 -16 14 -15 38 0 38 3 0 2 -5 -1 -10z m-305 -10 c8 -5 11 -10 5
-10 -5 0 -17 5 -25 10 -8 5 -10 10 -5 10 6 0 17 -5 25 -10z m634 1 c3 -5 -1
-11 -9 -14 -9 -4 -12 -1 -8 9 6 16 10 17 17 5z m-1846 -23 c-5 -15 -58 -24
-58 -10 0 15 12 22 38 22 14 0 22 -5 20 -12z m1446 -4 c3 -8 2 -12 -4 -9 -6 3
-10 10 -10 16 0 14 7 11 14 -7z m252 5 c3 -6 15 -9 25 -6 11 3 17 1 13 -4 -3
-5 -11 -9 -19 -9 -7 0 -15 -7 -19 -15 -3 -8 -11 -15 -17 -15 -7 0 -5 8 6 20
16 17 16 20 2 20 -9 0 -19 5 -22 10 -3 6 1 10 9 10 8 0 18 -5 22 -11z m-221
-9 c3 -5 1 -10 -4 -10 -6 0 -11 5 -11 10 0 6 2 10 4 10 3 0 8 -4 11 -10z
m-1975 -10 c8 -5 11 -10 5 -10 -5 0 -17 5 -25 10 -8 5 -10 10 -5 10 6 0 17 -5
25 -10z m1830 0 c0 -5 -4 -10 -10 -10 -5 0 -10 5 -10 10 0 6 5 10 10 10 6 0
10 -4 10 -10z m546 -39 c-14 -22 -33 -11 -34 21 l-1 31 21 -20 c11 -12 17 -26
14 -32z m-626 29 c0 -5 -5 -10 -11 -10 -5 0 -7 5 -4 10 3 6 8 10 11 10 2 0 4
-4 4 -10z m370 0 c-10 -7 -11 -10 -2 -10 9 0 8 -7 -4 -26 -9 -14 -22 -23 -29
-20 -7 2 -19 -1 -26 -7 -11 -10 -11 -9 -1 5 7 9 9 18 5 20 -4 3 -3 4 4 2 6 -1
19 4 30 11 14 11 15 14 3 15 -13 0 -13 1 0 10 8 5 20 10 25 10 6 0 3 -5 -5
-10z m-2573 -27 c1 -16 -2 -21 -7 -13 -4 7 -13 9 -20 5 -9 -6 -9 -3 -1 14 16
28 26 26 28 -6z m2728 -4 c5 -5 -2 -9 -19 -9 -24 0 -26 -3 -20 -22 3 -13 4
-20 0 -17 -4 4 -11 20 -16 38 -8 30 -8 31 18 25 15 -4 31 -11 37 -15z m180 0
c20 -8 19 -9 -1 -6 -11 1 -28 -4 -37 -12 -11 -9 -17 -10 -17 -2 0 6 5 11 11
11 5 0 7 5 4 10 -8 12 13 12 40 -1z m-2195 -9 c0 -5 -5 -10 -11 -10 -5 0 -7 5
-4 10 3 6 8 10 11 10 2 0 4 -4 4 -10z m146 -18 c-8 -9 -19 -13 -22 -9 -10 9
16 38 28 31 6 -4 4 -13 -6 -22z m1887 -51 c-5 -7 -43 31 -43 42 0 6 10 -1 23
-14 13 -13 22 -26 20 -28z m191 34 c3 -8 1 -15 -3 -15 -5 0 -11 7 -15 15 -3 8
-1 15 3 15 5 0 11 -7 15 -15z m-231 -26 c20 -17 37 -35 37 -42 0 -6 -9 -1 -20
11 -12 13 -33 22 -50 22 -28 0 -40 17 -23 33 10 11 17 9 56 -24z m-2773 18 c0
-2 -10 -12 -22 -23 l-23 -19 19 23 c18 21 26 27 26 19z m2605 -7 c3 -5 2 -10
-4 -10 -5 0 -13 5 -16 10 -3 6 -2 10 4 10 5 0 13 -4 16 -10z m255 0 c0 -5 -4
-10 -10 -10 -5 0 -10 5 -10 10 0 6 5 10 10 10 6 0 10 -4 10 -10z m132 -29 c10
-12 15 -21 12 -21 -4 0 -1 -7 6 -15 7 -9 11 -18 8 -20 -4 -5 -54 53 -72 83
-12 21 25 -1 46 -27z m-2542 25 c0 -2 -7 -7 -16 -10 -8 -3 -12 -2 -9 4 6 10
25 14 25 6z m90 0 c0 -2 -7 -9 -15 -16 -13 -11 -14 -10 -9 4 5 14 24 23 24 12z
m2160 1 c0 -2 -10 -12 -22 -23 l-23 -19 19 23 c18 21 26 27 26 19z m203 -11
c4 -10 1 -13 -8 -9 -8 3 -12 9 -9 14 7 12 11 11 17 -5z m-373 -6 c0 -5 -2 -10
-4 -10 -3 0 -8 5 -11 10 -3 6 -1 10 4 10 6 0 11 -4 11 -10z m-2050 -24 c0 -3
-4 -8 -10 -11 -5 -3 -10 -1 -10 4 0 6 5 11 10 11 6 0 10 -2 10 -4z m-330 -21
c9 -10 9 -15 1 -15 -6 0 -11 5 -11 11 0 6 -9 8 -22 4 -18 -5 -20 -4 -8 4 20
14 25 14 40 -4z m300 6 c0 -10 -24 -21 -43 -21 -7 0 -3 7 7 15 22 17 36 19 36
6z m54 -16 c-9 -14 -18 -25 -21 -25 -5 0 5 18 20 38 17 22 18 13 1 -13z m2192
0 c-3 -9 -11 -13 -16 -10 -8 5 -7 11 1 21 14 18 24 11 15 -11z m-2158 -15 c-7
-10 -14 -17 -17 -15 -4 4 18 35 25 35 2 0 -1 -9 -8 -20z m-413 -29 c3 -5 1
-12 -5 -16 -5 -3 -10 1 -10 9 0 18 6 21 15 7z m2545 -12 c0 -5 -4 -7 -10 -4
-5 3 -10 -3 -10 -14 0 -13 7 -21 18 -21 14 0 15 -2 2 -10 -18 -11 -51 25 -43
47 6 15 43 18 43 2z m-2626 -23 c-3 -8 -13 -17 -22 -21 -13 -5 -13 -2 3 15 21
24 26 25 19 6z m431 -6 c3 -5 1 -10 -4 -10 -6 0 -11 5 -11 10 0 6 2 10 4 10 3
0 8 -4 11 -10z m2280 -20 c4 -6 11 -8 16 -5 5 4 17 1 26 -4 10 -6 14 -11 8
-12 -5 0 -21 -3 -35 -5 -61 -11 -110 -12 -105 -3 4 5 22 9 42 9 27 0 34 3 29
15 -6 17 9 21 19 5z m-2574 -29 c-13 -10 -33 -29 -43 -42 -24 -29 -12 -5 16
34 11 15 27 27 35 27 12 0 9 -6 -8 -19z m219 14 c0 -2 -10 -10 -22 -16 -21
-11 -22 -11 -9 4 13 16 31 23 31 12z m50 -17 c0 -16 -3 -19 -11 -11 -6 6 -8
16 -5 22 11 17 16 13 16 -11z m2628 -7 c10 -6 7 -10 -12 -13 -18 -4 -26 -1
-26 8 0 16 18 18 38 5z m-2853 -17 c14 -9 25 -21 25 -27 0 -5 -8 -3 -18 6 -23
21 -33 22 -26 2 4 -8 2 -15 -4 -15 -11 0 -23 36 -14 44 8 8 10 8 37 -10z m262
-9 c0 -8 -4 -15 -9 -15 -10 0 -11 14 -1 23 9 10 10 9 10 -8z m2660 -1 c-3 -3
-12 -4 -19 -1 -8 3 -5 6 6 6 11 1 17 -2 13 -5z m-351 -26 c17 -19 17 -21 2
-15 -10 4 -18 2 -18 -3 0 -6 -4 -10 -9 -10 -5 0 -8 8 -7 18 2 9 -2 20 -8 24
-7 5 -5 8 5 8 9 0 24 -10 35 -22z m120 11 c4 -8 0 -9 -15 -4 -11 3 -29 2 -38
-4 -10 -6 -13 -11 -8 -11 6 0 4 -4 -4 -9 -11 -7 -11 -13 3 -32 18 -26 20 -39
7 -39 -5 0 -12 11 -15 25 -4 14 -11 25 -16 25 -13 0 0 32 19 47 20 16 58 17
67 2z m196 -18 c11 -11 19 -23 17 -28 -2 -4 -16 4 -31 20 -30 30 -19 38 14 8z
m-110 -20 c10 -13 10 -14 -2 -3 -25 22 -41 15 -29 -14 5 -15 7 -29 5 -31 -8
-8 -26 8 -26 23 0 8 -4 14 -10 14 -5 0 -10 8 -10 18 0 15 6 18 30 14 16 -2 35
-12 42 -21z m-452 15 c0 -3 -4 -8 -10 -11 -5 -3 -10 -1 -10 4 0 6 5 11 10 11
6 0 10 -2 10 -4z m-2440 -30 c-14 -13 -27 -21 -30 -19 -5 5 38 43 48 43 4 0
-5 -11 -18 -24z m352 -8 c-8 -8 -9 -4 -5 13 4 13 8 18 11 10 2 -7 -1 -18 -6
-23z m298 -3 c-7 -9 -15 -13 -17 -11 -7 7 7 26 19 26 6 0 6 -6 -2 -15z m2060
-15 c0 -5 -4 -10 -9 -10 -6 0 -13 5 -16 10 -3 6 1 10 9 10 9 0 16 -4 16 -10z
m-2365 -10 c3 -5 1 -10 -4 -10 -6 0 -11 5 -11 10 0 6 2 10 4 10 3 0 8 -4 11
-10z m395 6 c0 -2 -7 -7 -16 -10 -8 -3 -12 -2 -9 4 6 10 25 14 25 6z m-756
-21 c3 -8 1 -15 -4 -15 -6 0 -10 7 -10 15 0 8 2 15 4 15 2 0 6 -7 10 -15z
m144 -26 c-18 -19 -46 -51 -63 -71 -16 -21 -31 -35 -34 -33 -4 5 58 83 97 124
13 13 25 21 28 18 3 -2 -10 -20 -28 -38z m2806 20 c-4 -8 0 -9 15 -4 11 3 28
2 37 -3 11 -6 -3 -12 -52 -20 -68 -11 -105 -8 -46 4 18 4 32 13 32 20 0 8 5
14 11 14 5 0 7 -5 3 -11z m-2702 -20 c-19 -18 -34 -16 -26 4 2 7 13 13 24 13
18 0 18 -1 2 -17z m2418 17 c0 -3 -4 -8 -10 -11 -5 -3 -10 -1 -10 4 0 6 5 11
10 11 6 0 10 -2 10 -4z m-2480 -16 c0 -5 -9 -14 -20 -20 -19 -10 -20 -10 -8 9
13 22 28 28 28 11z m1148 -30 c1 -19 2 -45 2 -57 0 -12 5 -25 10 -28 6 -3 10
-21 11 -38 1 -51 33 -131 57 -142 11 -5 26 -20 33 -32 7 -13 26 -34 43 -47 25
-18 100 -87 158 -144 4 -4 22 -24 39 -44 17 -21 37 -38 43 -38 7 0 27 -19 44
-42 17 -24 65 -79 107 -122 94 -98 104 -114 67 -108 -19 2 -33 -3 -46 -17 -13
-14 -26 -19 -45 -15 -21 4 -29 0 -42 -23 -12 -22 -24 -29 -52 -30 -27 -2 -37
1 -37 11 0 8 -16 31 -34 51 -41 43 -72 44 -69 2 1 -20 -3 -27 -16 -27 -10 0
-24 7 -31 15 -11 13 -16 12 -37 -9 -16 -16 -23 -32 -19 -43 11 -34 -35 -23
-56 13 -20 34 -44 49 -53 34 -3 -5 -20 6 -37 25 -16 19 -38 35 -47 35 -9 0
-22 5 -29 12 -14 14 -15 9 -16 -52 -1 -39 -4 -45 -28 -54 -22 -8 -32 -6 -47 8
-11 10 -27 16 -36 13 -25 -10 -45 4 -45 31 0 35 -37 110 -61 123 -16 8 -19 6
-19 -10 0 -23 -29 -36 -36 -16 -10 25 -33 17 -31 -9 3 -36 -17 -37 -21 -2 -5
39 24 141 54 193 13 23 24 52 24 65 0 13 7 45 15 73 9 27 18 94 22 150 7 103
7 121 0 214 -4 61 -14 53 118 92 119 36 139 35 143 -11z m1430 19 c30 14 39 9
17 -9 -9 -7 -36 -12 -60 -12 -25 1 -45 -2 -45 -8 0 -5 -4 -10 -10 -10 -19 0
-10 27 13 37 14 7 28 7 41 1 12 -7 27 -6 44 1z m-1993 -9 c-3 -5 -11 -10 -16
-10 -6 0 -7 5 -4 10 3 6 11 10 16 10 6 0 7 -4 4 -10z m-398 -42 c-3 -8 -6 -5
-6 6 -1 11 2 17 5 13 3 -3 4 -12 1 -19z m2668 12 c3 -5 -9 -9 -29 -8 -19 1
-33 5 -30 10 7 11 51 10 59 -2z m-211 -26 c24 -9 19 -23 -6 -16 -14 3 -19 1
-14 -6 3 -6 1 -14 -5 -18 -8 -4 -9 -3 -5 5 11 17 -19 24 -46 10 l-23 -13 25
-7 c23 -6 23 -7 -7 -8 -55 -2 -36 38 23 49 22 4 40 8 41 9 1 0 8 -2 17 -5z
m153 -9 c20 -8 33 -18 30 -22 -4 -3 -14 0 -24 8 -15 12 -16 12 -11 -3 4 -10 1
-19 -8 -22 -9 -3 -14 1 -14 13 0 10 -10 23 -22 29 -37 17 6 15 49 -3z m70 -1
c-3 -3 -12 -4 -19 -1 -8 3 -5 6 6 6 11 1 17 -2 13 -5z m-351 -16 c4 -7 4 -10
-1 -6 -4 4 -14 3 -22 -4 -7 -6 -17 -8 -20 -4 -4 4 -1 11 7 16 20 13 27 12 36
-2z m-2484 -29 c-18 -16 -41 -48 -52 -69 -18 -35 -80 -109 -80 -95 0 2 15 25
33 50 17 24 48 67 67 94 19 28 42 51 50 51 9 0 3 -11 -18 -31z m241 16 c-3 -9
-8 -14 -10 -11 -3 3 -2 9 2 15 9 16 15 13 8 -4z m311 -16 c-8 -14 -24 -10 -24
6 0 9 6 12 15 9 8 -4 12 -10 9 -15z m-464 7 c0 -2 -8 -10 -17 -17 -16 -13 -17
-12 -4 4 13 16 21 21 21 13z m2710 -6 c0 -5 -9 -10 -21 -10 -11 0 -17 5 -14
10 3 6 13 10 21 10 8 0 14 -4 14 -10z m-166 -6 c9 -3 16 -11 16 -16 0 -7 -5
-6 -13 1 -8 6 -17 8 -20 4 -4 -3 -7 -1 -7 5 0 14 2 14 24 6z m-2596 -39 c10
-22 9 -25 -9 -25 -19 0 -20 2 -8 17 12 15 12 16 -3 10 -12 -4 -15 -2 -11 9 8
21 18 17 31 -11z m65 -25 c-8 -8 -33 32 -26 43 3 5 12 -1 19 -14 7 -13 10 -26
7 -29z m2468 17 c-10 -9 -11 -8 -5 6 3 10 9 15 12 12 3 -3 0 -11 -7 -18z m154
-17 c-3 -5 -10 -10 -16 -10 -5 0 -9 5 -9 10 0 6 7 10 16 10 8 0 12 -4 9 -10z
m155 6 c0 -3 -4 -8 -10 -11 -5 -3 -10 -1 -10 4 0 6 5 11 10 11 6 0 10 -2 10
-4z m-280 -27 c0 -4 -15 -9 -32 -12 -18 -3 -42 -8 -53 -11 -11 -4 -8 0 8 7 15
7 25 15 23 18 -2 2 9 4 25 4 16 0 29 -3 29 -6z m-2125 -19 c-3 -5 -10 -10 -16
-10 -5 0 -9 5 -9 10 0 6 7 10 16 10 8 0 12 -4 9 -10z m-345 -25 c0 -2 -14 -12
-30 -20 -17 -9 -29 -19 -26 -23 6 -11 -23 -47 -31 -38 -4 4 -1 17 6 29 14 21
13 21 -10 6 -13 -9 -36 -41 -51 -72 -15 -30 -32 -58 -39 -63 -8 -5 -10 -3 -4
6 4 7 2 16 -6 22 -11 8 -10 9 3 4 14 -4 23 6 38 42 14 33 34 57 67 80 41 28
83 42 83 27z m2640 -5 c0 -5 -2 -10 -4 -10 -3 0 -8 5 -11 10 -3 6 -1 10 4 10
6 0 11 -4 11 -10z m-2558 -22 c-7 -7 -12 -8 -12 -2 0 14 12 26 19 19 2 -3 -1
-11 -7 -17z m2435 16 c-3 -3 -12 -4 -19 -1 -8 3 -5 6 6 6 11 1 17 -2 13 -5z
m-2512 -24 c3 -5 -3 -10 -14 -10 -12 0 -21 5 -21 10 0 6 6 10 14 10 8 0 18 -4
21 -10z m2450 -19 c3 -5 1 -12 -5 -16 -5 -3 -10 1 -10 9 0 18 6 21 15 7z m267
-13 c-7 -7 -12 -8 -12 -2 0 14 12 26 19 19 2 -3 -1 -11 -7 -17z m-2579 -3 c-3
-9 -8 -14 -10 -11 -3 3 -2 9 2 15 9 16 15 13 8 -4z m2727 5 c0 -5 -2 -10 -4
-10 -3 0 -8 5 -11 10 -3 6 -1 10 4 10 6 0 11 -4 11 -10z m-2530 -14 c0 -2 -7
-6 -15 -10 -8 -3 -15 -1 -15 4 0 6 7 10 15 10 8 0 15 -2 15 -4z m2168 -3 c-10
-2 -26 -2 -35 0 -10 3 -2 5 17 5 19 0 27 -2 18 -5z m412 -3 c0 -5 -2 -10 -4
-10 -3 0 -8 5 -11 10 -3 6 -1 10 4 10 6 0 11 -4 11 -10z m-130 -10 c0 -5 -5
-10 -11 -10 -5 0 -7 5 -4 10 3 6 8 10 11 10 2 0 4 -4 4 -10z m-321 -4 c-15
-15 -79 -54 -79 -49 0 12 54 52 69 53 8 0 12 -2 10 -4z m-2044 -26 c3 -5 1
-10 -4 -10 -6 0 -11 5 -11 10 0 6 2 10 4 10 3 0 8 -4 11 -10z m1766 -13 c-10
-9 -11 -8 -5 6 3 10 9 15 12 12 3 -3 0 -11 -7 -18z m589 13 c0 -5 -8 -10 -17
-10 -15 0 -16 2 -3 10 19 12 20 12 20 0z m-2740 -20 c0 -5 -4 -10 -10 -10 -13
0 -13 -36 1 -61 10 -20 10 -20 -18 -3 -36 23 -42 29 -23 22 11 -4 16 0 16 13
0 11 -2 19 -3 19 -11 0 -48 -42 -65 -73 -10 -22 -22 -37 -25 -34 -3 3 5 25 18
49 30 53 109 110 109 78z m30 0 c0 -5 -4 -10 -10 -10 -5 0 -10 5 -10 10 0 6 5
10 10 10 6 0 10 -4 10 -10z m2424 -4 c-3 -8 -12 -17 -20 -20 -9 -3 -12 -11 -8
-18 4 -7 4 -10 -1 -6 -7 7 -55 -54 -55 -70 0 -13 -48 -29 -62 -21 -9 6 -6 9
12 10 14 0 19 3 12 6 -13 5 -7 23 9 23 6 0 7 -4 4 -10 -3 -5 -1 -10 4 -10 11
0 15 13 12 36 -1 7 8 14 19 17 11 3 20 13 20 22 0 9 10 25 23 36 27 22 38 24
31 5z m-124 -21 c-7 -9 -15 -13 -19 -10 -3 3 1 10 9 15 21 14 24 12 10 -5z
m199 -27 c-17 -7 -19 -11 -9 -23 9 -11 6 -21 -17 -50 -33 -42 -44 -29 -13 16
17 22 20 33 11 42 -6 6 -11 22 -11 35 0 23 0 23 30 5 29 -17 29 -18 9 -25z
m-2489 13 c0 -24 -25 -34 -40 -16 -8 10 -7 16 7 24 26 15 33 13 33 -8z m2525
-41 c7 0 15 5 17 10 2 7 15 7 38 0 22 -6 38 -6 44 0 6 6 19 10 31 9 14 0 16
-2 5 -6 -8 -3 -21 -11 -29 -17 -8 -6 -40 -11 -71 -11 -49 0 -56 2 -57 20 -1
11 1 14 4 8 3 -7 11 -13 18 -13z m205 -32 c0 -5 5 -6 10 -3 6 4 19 -4 29 -17
23 -28 20 -34 -8 -18 -12 6 -21 7 -21 2 0 -8 29 -25 61 -35 19 -6 65 -67 51
-67 -5 0 -15 7 -22 15 -14 17 -35 21 -25 5 3 -5 -2 -10 -12 -10 -17 -1 -17 -1
0 -11 9 -5 17 -15 17 -20 0 -6 -5 -7 -11 -3 -9 5 -10 -1 -5 -21 6 -25 5 -27
-8 -16 -9 7 -13 17 -10 22 3 5 -2 6 -10 3 -22 -8 -32 22 -15 43 11 13 11 17 2
20 -7 3 -13 9 -13 14 0 4 7 6 15 3 8 -4 15 -1 15 5 0 6 -10 11 -22 11 -19 0
-20 2 -8 10 12 8 10 10 -9 10 -16 0 -21 4 -18 15 5 11 1 12 -18 5 -19 -7 -23
-6 -18 5 3 8 9 12 14 9 5 -3 9 0 9 6 0 6 5 8 13 4 8 -5 7 -2 -2 10 -10 12 -16
14 -21 5 -6 -8 -9 -8 -14 0 -4 6 -2 11 4 11 6 0 8 5 5 10 -4 6 5 5 19 -2 14
-6 26 -15 26 -20z m-2713 16 c-3 -3 -12 -4 -19 -1 -8 3 -5 6 6 6 11 1 17 -2
13 -5z m2943 -10 c0 -2 -9 -4 -21 -4 -11 0 -18 4 -14 10 5 8 35 3 35 -6z
m-549 -11 c13 -16 12 -17 -3 -4 -10 7 -18 15 -18 17 0 8 8 3 21 -13z m-2381
-33 c-22 -22 -37 -40 -35 -40 2 0 15 4 28 9 19 7 27 5 38 -10 14 -19 46 -28
34 -9 -3 6 5 10 19 10 24 0 52 -31 39 -43 -3 -4 0 -13 7 -22 7 -8 10 -16 6
-16 -3 -1 -9 -2 -13 -3 -5 -1 -13 -4 -18 -8 -6 -3 -23 11 -39 33 -29 37 -46
49 -46 30 0 -5 7 -14 15 -21 8 -7 15 -17 15 -22 0 -5 -8 -2 -17 8 -17 16 -18
16 -23 -6 -10 -42 -29 -35 -23 8 5 34 3 40 -18 45 -29 8 -39 1 -39 -28 0 -13
-4 -27 -10 -30 -14 -9 -12 10 4 48 12 30 90 106 108 107 4 0 -10 -18 -32 -40z
m2150 26 c0 -2 -7 -9 -15 -16 -13 -11 -14 -10 -9 4 5 14 24 23 24 12z m65 -6
c-3 -5 -16 -10 -28 -10 -18 0 -19 2 -7 10 20 13 43 13 35 0z m-2155 -35 c0 -8
-4 -15 -10 -15 -5 0 -10 7 -10 15 0 8 5 15 10 15 6 0 10 -7 10 -15z m2046 -27
c-9 -12 -16 -19 -16 -15 0 11 24 47 28 42 2 -2 -3 -14 -12 -27z m170 4 c-4 -3
-14 2 -24 12 -16 18 -16 18 6 6 13 -6 21 -14 18 -18z m79 13 c24 -12 25 -13 5
-8 -14 4 -35 7 -47 6 -13 0 -23 3 -23 8 0 13 31 10 65 -6z m-287 -31 c27 -27
12 -24 -20 4 -9 7 -22 11 -29 6 -8 -4 -10 -3 -5 4 11 18 24 14 54 -14z m-118
12 c0 -2 -7 -9 -15 -16 -12 -10 -15 -10 -15 4 0 9 7 16 15 16 8 0 15 -2 15 -4z
m200 -11 c-7 -9 -15 -13 -17 -11 -7 7 7 26 19 26 6 0 6 -6 -2 -15z m140 -5 c0
-5 -2 -10 -4 -10 -3 0 -8 5 -11 10 -3 6 -1 10 4 10 6 0 11 -4 11 -10z m144 -6
c5 -14 4 -15 -9 -4 -17 14 -19 20 -6 20 5 0 12 -7 15 -16z m-2657 -19 c-7 -13
-14 -20 -15 -14 -2 5 2 16 8 24 18 21 20 18 7 -10z m2843 15 c0 -5 -2 -10 -4
-10 -3 0 -8 5 -11 10 -3 6 -1 10 4 10 6 0 11 -4 11 -10z m-460 -20 c-8 -6 -24
-9 -35 -9 l-20 1 20 5 c11 3 24 9 29 14 5 5 12 6 15 3 3 -3 -1 -9 -9 -14z
m236 -17 c-4 -4 -11 -1 -16 7 -16 25 -11 35 7 17 9 -9 13 -20 9 -24z m280 10
c5 3 10 -3 10 -13 0 -17 -2 -16 -27 4 -14 11 -24 25 -22 29 3 5 11 0 17 -9 7
-9 17 -14 22 -11z m-2496 13 c0 -3 -4 -8 -10 -11 -5 -3 -10 -1 -10 4 0 6 5 11
10 11 6 0 10 -2 10 -4z m2140 -12 c0 -14 3 -14 15 -4 11 9 15 9 15 1 0 -18
-26 -24 -51 -11 -17 10 -19 14 -8 21 21 13 29 11 29 -7z m250 -3 c0 -6 -4 -13
-10 -16 -5 -3 -10 1 -10 9 0 9 5 16 10 16 6 0 10 -4 10 -9z m-135 -11 c3 -5 2
-10 -4 -10 -5 0 -13 5 -16 10 -3 6 -2 10 4 10 5 0 13 -4 16 -10z m170 -10 c10
-11 14 -20 9 -20 -5 0 -15 9 -22 20 -7 11 -11 20 -9 20 2 0 12 -9 22 -20z
m-435 -21 c-19 -4 -39 -4 -45 -1 -12 8 56 20 70 13 5 -3 -6 -8 -25 -12z
m-1923 -61 c-4 -33 17 -38 33 -8 6 11 16 20 23 20 8 0 7 -3 -2 -9 -8 -5 -14
-23 -14 -40 0 -17 -4 -31 -9 -31 -5 0 -7 -4 -3 -9 3 -5 1 -12 -5 -16 -6 -4
-10 7 -10 26 0 26 -2 29 -14 20 -12 -10 -16 -5 -21 33 -4 26 -11 49 -16 52 -5
3 -9 10 -9 15 0 5 11 2 25 -8 19 -13 25 -25 22 -45z m1905 38 c7 5 8 3 4 -5
-5 -7 -14 -10 -22 -7 -8 3 -11 0 -7 -10 3 -9 13 -14 24 -11 12 3 19 0 19 -9 0
-17 5 -17 31 -4 13 7 19 7 19 0 0 -5 -7 -10 -16 -10 -8 0 -12 -4 -9 -10 3 -5
2 -10 -4 -10 -5 0 -13 5 -16 10 -12 20 -69 38 -88 28 -10 -5 -25 -7 -34 -4 -8
3 -24 1 -36 -6 -20 -10 -21 -10 -8 6 9 10 26 16 47 14 44 -3 63 14 43 39 -13
17 -13 17 14 0 15 -10 33 -15 39 -11z m154 12 c5 -8 2 -9 -11 -5 -9 4 -24 2
-31 -4 -12 -10 -13 -9 -8 5 7 19 39 22 50 4z m555 -11 c-10 -9 -11 -8 -5 6 3
10 9 15 12 12 3 -3 0 -11 -7 -18z m-2714 6 c-4 -3 3 -17 15 -30 24 -25 9 -32
-16 -7 -14 14 -18 13 -42 -13 -24 -27 -25 -27 -13 -3 15 32 39 60 52 60 6 0 7
-3 4 -7z m2283 -48 c19 -19 32 -35 29 -35 -3 0 -20 16 -39 35 -19 19 -32 35
-29 35 3 0 20 -16 39 -35z m289 4 c15 -24 15 -24 -5 -6 -11 9 -24 14 -27 10
-4 -3 -7 2 -7 11 0 23 19 16 39 -15z m98 25 c-3 -3 -12 -4 -19 -1 -8 3 -5 6 6
6 11 1 17 -2 13 -5z m-929 -41 c-10 -2 -28 -2 -40 0 -13 2 -5 4 17 4 22 1 32
-1 23 -4z m-1543 -13 c3 -5 1 -10 -4 -10 -6 0 -11 5 -11 10 0 6 2 10 4 10 3 0
8 -4 11 -10z m1630 -10 c-10 -11 -22 -20 -27 -20 -5 0 -4 9 2 20 6 11 18 20
27 20 14 0 14 -2 -2 -20z m355 -5 c11 -13 10 -14 -4 -9 -9 3 -16 10 -16 15 0
13 6 11 20 -6z m418 -10 c-3 -3 -9 2 -12 12 -6 14 -5 15 5 6 7 -7 10 -15 7
-18z m-1127 -14 c-12 -12 -21 -17 -21 -12 0 12 31 43 37 37 3 -2 -5 -14 -16
-25z m805 11 c-10 -2 -22 0 -28 6 -6 6 0 7 19 4 21 -5 23 -7 9 -10z m-2016
-15 c13 -5 13 -6 -1 -6 -8 -1 -24 6 -35 15 -19 15 -19 15 1 6 11 -5 27 -12 35
-15z m1320 -43 c0 -6 -15 3 -52 30 -16 11 -28 24 -28 29 0 5 18 -6 40 -23 22
-17 40 -34 40 -36z m200 59 c0 -5 -18 -18 -39 -30 -33 -19 -41 -20 -57 -8 -18
13 -17 14 9 20 15 4 31 5 34 2 3 -4 15 0 27 8 23 17 26 18 26 8z m-1857 -18
c-3 -9 -8 -14 -10 -11 -3 3 -2 9 2 15 9 16 15 13 8 -4z m2312 -6 c-4 -5 -12
-9 -18 -8 -9 0 -8 2 1 6 6 2 9 10 6 15 -4 7 -2 8 5 4 6 -4 9 -12 6 -17z
m-2016 -25 c2 -2 -9 -4 -26 -4 -18 0 -33 6 -36 14 -5 12 0 13 26 4 18 -6 34
-13 36 -14z m1436 16 c-3 -5 -16 -10 -28 -9 -21 0 -21 1 -2 9 28 12 37 12 30
0z m899 1 c3 -4 -1 -17 -8 -27 -13 -17 -14 -17 -13 9 2 27 11 35 21 18z
m-2254 -5 c0 -11 -19 -15 -25 -6 -3 5 1 10 9 10 9 0 16 -2 16 -4z m1474 -32
c3 -8 2 -12 -4 -9 -6 3 -10 10 -10 16 0 14 7 11 14 -7z m310 0 c9 -24 2 -26
-12 -4 -7 11 -8 20 -3 20 5 0 12 -7 15 -16z m-1874 -11 c0 -11 -5 -11 -20 -3
-11 6 -20 12 -20 13 0 2 9 3 20 3 11 0 20 -6 20 -13z m1307 0 c11 -14 14 -14
10 -3 -3 10 2 16 14 16 23 0 24 -9 3 -27 -9 -7 -20 -22 -24 -34 -7 -17 -9 -17
-9 -2 -1 9 -6 17 -12 17 -5 0 -7 5 -4 10 3 6 0 10 -7 11 -10 0 -10 2 0 6 6 2
10 9 6 14 -10 16 8 10 23 -8z m698 -21 c-3 -3 -11 0 -18 7 -9 10 -8 11 6 5 10
-3 15 -9 12 -12z m-2325 4 c0 -2 -8 -10 -17 -17 -16 -13 -17 -12 -4 4 13 16
21 21 21 13z m490 -4 c0 -4 -4 -12 -8 -17 -5 -6 -17 -36 -27 -67 -11 -32 -20
-56 -22 -54 -6 5 16 99 29 124 11 21 28 30 28 14z m1095 -8 c25 -25 9 -29 -21
-5 -18 14 -22 21 -11 21 9 0 23 -7 32 -16z m-1724 -27 c-8 -8 -11 -7 -11 4 0
20 13 34 18 19 3 -7 -1 -17 -7 -23z m2279 17 c0 -8 -5 -12 -10 -9 -6 4 -8 11
-5 16 9 14 15 11 15 -7z m-1720 -4 c0 -5 -5 -10 -11 -10 -5 0 -7 5 -4 10 3 6
8 10 11 10 2 0 4 -4 4 -10z m1692 -8 c5 -5 -5 -7 -22 -4 -16 2 -30 8 -30 13 0
10 40 3 52 -9z m263 2 c13 -9 30 -12 36 -8 8 4 9 3 5 -4 -15 -24 -76 -7 -76
20 0 12 8 10 35 -8z m80 6 c3 -5 -1 -10 -10 -10 -9 0 -13 5 -10 10 3 6 8 10
10 10 2 0 7 -4 10 -10z m-1920 -13 c33 3 35 2 35 -26 0 -27 -3 -30 -30 -28
-16 1 -30 6 -30 11 0 5 -8 2 -17 -5 -15 -12 -16 -12 -9 6 5 11 9 29 8 40 0 11
2 15 4 9 3 -6 20 -9 39 -7z m109 -22 c-4 -9 0 -15 10 -15 19 0 21 -11 4 -28
-20 -20 -41 -15 -35 9 4 15 2 19 -9 15 -20 -8 -17 11 4 23 24 15 32 13 26 -4z
m662 -1 c15 6 16 4 7 -5 -14 -14 -43 -5 -43 13 0 10 3 9 9 -1 6 -9 16 -11 27
-7z m1047 -11 c-7 -2 -19 -2 -25 0 -7 3 -2 5 12 5 14 0 19 -2 13 -5z m-463
-23 c-6 -11 -12 -20 -14 -20 -3 0 -1 23 3 38 1 1 6 2 11 2 7 0 7 -6 0 -20z
m-1960 -10 c0 -5 -9 -8 -19 -7 -15 1 -17 4 -9 14 11 13 28 9 28 -7z m2233 4
c4 -1 10 -2 15 -3 4 -1 -10 -8 -31 -15 -21 -8 -48 -12 -60 -9 -18 4 -19 3 -7
-7 13 -10 13 -11 0 -7 -8 2 -16 10 -18 18 -2 11 7 14 33 14 24 -1 35 3 35 12
0 9 5 11 13 6 6 -4 15 -8 20 -9z m-318 -12 c-3 -3 -11 0 -18 7 -9 10 -8 11 6
5 10 -3 15 -9 12 -12z m-1141 -7 c-4 -8 -8 -15 -10 -15 -2 0 -4 7 -4 15 0 8 4
15 10 15 5 0 7 -7 4 -15z m118 -17 c-30 -12 -36 -8 -16 11 13 12 21 15 26 7 4
-6 0 -14 -10 -18z m56 14 c2 -7 -3 -12 -12 -12 -9 0 -16 7 -16 16 0 17 22 14
28 -4z m-138 -23 c-7 -11 -14 -18 -17 -15 -3 3 0 12 7 21 18 21 23 19 10 -6z
m-188 -11 c-12 -12 -35 -1 -27 12 3 5 13 6 21 3 10 -4 12 -9 6 -15z m488 2 c0
-5 -2 -10 -4 -10 -3 0 -8 5 -11 10 -3 6 -1 10 4 10 6 0 11 -4 11 -10z m-470
-40 c-12 -22 -25 -26 -36 -9 -7 12 12 29 34 29 10 0 10 -5 2 -20z m1230 10 c0
-5 -5 -10 -11 -10 -5 0 -7 5 -4 10 3 6 8 10 11 10 2 0 4 -4 4 -10z m-714 -27
c-7 -7 -26 7 -26 19 0 6 6 6 15 -2 9 -7 13 -15 11 -17z m784 17 c0 -5 -5 -10
-11 -10 -5 0 -7 5 -4 10 3 6 8 10 11 10 2 0 4 -4 4 -10z m-714 -35 c9 -8 14
-15 12 -16 -2 0 -22 -2 -45 -5 -36 -3 -43 -1 -43 13 0 13 3 14 12 5 14 -14 32
-16 24 -3 -5 8 4 16 22 20 2 1 10 -6 18 -14z m344 -15 c0 -5 -8 -14 -18 -19
-20 -11 -72 -10 -65 2 2 4 15 4 29 1 17 -4 26 -1 30 10 7 17 24 22 24 6z
m-555 -10 c7 -12 -12 -40 -26 -40 -5 0 -6 7 -3 15 4 8 1 15 -6 15 -6 0 -8 5
-5 10 8 13 32 13 40 0z m-1445 -97 c-7 -10 -24 -27 -38 -37 -22 -17 -21 -13 8
20 36 42 50 50 30 17z m363 0 c-7 -2 -19 -2 -25 0 -7 3 -2 5 12 5 14 0 19 -2
13 -5z m-26 -29 c-3 -3 -12 -4 -19 -1 -8 3 -5 6 6 6 11 1 17 -2 13 -5z m-287
-18 c0 -2 -8 -10 -17 -17 -16 -13 -17 -12 -4 4 13 16 21 21 21 13z m266 -31
c-11 -8 -25 -15 -30 -15 -6 0 -2 7 8 15 11 8 25 15 30 15 6 0 2 -7 -8 -15z"/>
<path d="M4440 920 c0 -5 5 -10 10 -10 6 0 10 5 10 10 0 6 -4 10 -10 10 -5 0
-10 -4 -10 -10z"/>
<path d="M1795 910 c-3 -5 -1 -10 4 -10 6 0 11 5 11 10 0 6 -2 10 -4 10 -3 0
-8 -4 -11 -10z"/>
<path d="M3879 3080 c-13 -10 -19 -19 -13 -20 6 0 19 9 29 20 23 26 14 26 -16
0z"/>
</g>
</svg>
